<?xml version="1.0" encoding="UTF-8" standalone="no"?>
<svg
   xmlns:dc="http://purl.org/dc/elements/1.1/"
   xmlns:cc="http://creativecommons.org/ns#"
   xmlns:rdf="http://www.w3.org/1999/02/22-rdf-syntax-ns#"
   xmlns:svg="http://www.w3.org/2000/svg"
   xmlns="http://www.w3.org/2000/svg"
   xmlns:sodipodi="http://sodipodi.sourceforge.net/DTD/sodipodi-0.dtd"
   xmlns:inkscape="http://www.inkscape.org/namespaces/inkscape"
   id="9af98f83-10c5-4067-bc84-20554b2827d8"
   data-name="Layer 1"
   width="400"
   height="300"
   viewBox="0 0 400.00001 300"
   version="1.1"
   sodipodi:docname="empty.svg"
   inkscape:version="0.92.4 (5da689c313, 2019-01-14)">
  <metadata
     id="metadata208">
    <rdf:RDF>
      <cc:Work
         rdf:about="">
        <dc:format>image/svg+xml</dc:format>
        <dc:type
           rdf:resource="http://purl.org/dc/dcmitype/StillImage" />
        <dc:title>empty</dc:title>
      </cc:Work>
    </rdf:RDF>
  </metadata>
  <sodipodi:namedview
     pagecolor="#ffffff"
     bordercolor="#666666"
     borderopacity="1"
     objecttolerance="10"
     gridtolerance="10"
     guidetolerance="10"
     inkscape:pageopacity="0"
     inkscape:pageshadow="2"
     inkscape:window-width="1920"
     inkscape:window-height="1017"
     id="namedview206"
     showgrid="false"
     inkscape:zoom="0.79568251"
     inkscape:cx="525.68762"
     inkscape:cy="210.96018"
     inkscape:window-x="-8"
     inkscape:window-y="-8"
     inkscape:window-maximized="1"
     inkscape:current-layer="9af98f83-10c5-4067-bc84-20554b2827d8" />
  <defs
     id="defs9">
    <linearGradient
       id="07c62293-c0d3-4921-8e06-4e39241449cd"
       x1="318.22"
       y1="488.45001"
       x2="630.34998"
       y2="488.45001"
       gradientUnits="userSpaceOnUse"
       gradientTransform="matrix(0.36999143,0,0,0.36999143,-25.182612,-12.627946)">
      <stop
         offset="0"
         stop-color="gray"
         stop-opacity="0.25"
         id="stop2" />
      <stop
         offset="0.54"
         stop-color="gray"
         stop-opacity="0.12"
         id="stop4" />
      <stop
         offset="1"
         stop-color="gray"
         stop-opacity="0.1"
         id="stop6" />
    </linearGradient>
  </defs>
  <title
     id="title11">empty</title>
  <ellipse
     cx="141.07674"
     cy="281.99625"
     rx="65.155495"
     ry="12.342915"
     id="ellipse13"
     style="opacity:0.1;fill:#0f52ba;stroke-width:0.36999142" />
  <path
     d="M 227.07014,48.94973 C 203.1243,48.120949 180.31802,40.388128 158.54033,31.930124 136.76263,23.47212 115.19213,14.103937 91.819777,9.623341 76.787025,6.7411078 59.593523,6.3304173 47.483704,14.381431 c -11.65843,7.76982 -15.424942,21.14501 -17.448796,33.565622 -1.524364,9.345983 -2.419743,19.184055 1.75376,27.934352 2.900733,6.07526 8.043613,11.181141 11.602931,17.001106 12.383613,20.245929 3.629616,45.212949 -9.786273,64.981589 -6.289855,9.27199 -13.597185,18.12958 -18.455172,27.98986 -4.857988,9.86027 -7.1038355,21.1968 -2.852634,31.28277 4.210502,9.98977 14.248369,17.4784 25.122417,22.75077 22.084788,10.71126 48.098886,13.77479 73.483993,15.51375 56.1758,3.84051 112.64759,2.17924 168.97139,0.51058 20.84531,-0.61418 41.77943,-1.23947 62.28435,-4.46209 11.38834,-1.79076 23.14297,-4.6323 31.41228,-11.49194 10.49295,-8.7059 13.09399,-23.44635 6.06046,-34.3611 -11.79533,-18.31458 -44.39898,-22.86177 -52.65348,-42.51202 -4.5361,-10.81855 0.12209,-22.86547 6.71904,-32.89593 14.14847,-21.5224 37.86122,-40.403067 39.10809,-65.000097 0.85838,-16.893808 -10.54105,-33.813516 -28.16744,-41.809031 -18.47368,-8.380306 -44.09558,-7.32583 -57.71867,6.545149 -14.04117,14.266869 -38.7048,19.761242 -59.84981,19.024959 z"
     id="path15"
     inkscape:connector-curvature="0"
     style="opacity:0.1;fill:#0f52ba;stroke-width:0.36999142" />
  <path
     d="m 208.04148,141.57338 -11.33284,-7.64032 v 0 l 5.71637,-8.5098 -29.9323,-2.38645 -10.75565,8.31741 -13.46399,-7.54783 -11.22924,1.35047 -0.1332,-2.95993 a 83.536664,83.536664 0 0 0 -0.92868,-9.21278 c 0.0481,-0.92498 0.0814,-1.98686 0.0777,-3.14123 0,-4.86539 -0.65858,-11.314339 -3.55192,-15.61364 l 0.66599,-5.986461 -5.40188,-6.382352 a 40.835954,40.835954 0 0 1 2.95993,-4.980085 c 0.185,-0.266394 0.37,-0.525388 0.56979,-0.776982 7.01134,-0.506888 12.54271,-6.271354 12.54271,-13.319691 0,-0.325592 0,-0.651185 -0.037,-0.973077 0,-0.129497 -0.0259,-0.262694 -0.0407,-0.392191 0.68449,0.369991 1.37637,0.739982 2.06825,1.109974 0.1295,0.184996 0.2775,0.369991 0.44029,0.588286 v 0 l 0.0333,0.0407 0.2072,0.255294 0.0666,0.0777 c 0.074,0.0888 0.15169,0.173896 0.22939,0.262694 l 0.0518,0.0592 c 0.1961,0.218295 0.40329,0.44029 0.62529,0.658585 a 0.66598457,0.66598457 0 0 1 0.074,0.0703 l 0.2775,0.258994 0.0777,0.0703 c 0.23679,0.210895 0.48838,0.41439 0.73998,0.606786 l 0.0814,0.0592 0.31819,0.218295 0.1036,0.0666 c 0.12209,0.074 0.24789,0.151696 0.36999,0.221994 l 0.0444,0.0259 c 0.14429,0.0777 0.29229,0.151696 0.44029,0.221995 l 0.074,0.0296 q 0.18869,0.0814 0.36999,0.155396 l 0.11469,0.0407 c 0.1295,0.0444 0.2553,0.0851 0.38849,0.122098 l 0.0814,0.0222 c 0.1628,0.0407 0.3256,0.074 0.49209,0.0999 h 0.0185 a 4.0255067,4.0255067 0 0 0 0.47359,0.0481 h 0.1073 a 4.0699057,4.0699057 0 0 0 0.42549,0 h 0.0925 a 4.3843984,4.3843984 0 0 0 0.52908,-0.0629 5.8384647,5.8384647 0 0 0 2.33095,-0.83618 2.0349528,2.0349528 0 0 0 0.47359,-0.44029 c 0.73998,-0.969378 -0.074,-2.031253 -0.074,-2.031253 v 0 c -0.28859,-0.688184 -2.16075,-1.172873 -2.16075,-1.172873 0,0 -5.91986,-2.471543 -5.91986,-4.439897 0,-1.968354 -1.47997,-12.180118 -16.75691,-14.514764 0,0 -9.93797,-0.558687 -12.73141,4.76179 l -0.0592,0.621586 c -0.82138,0.514288 -1.50216,1.546564 -2.31244,1.849957 a 3.7776125,3.7776125 0 0 0 -1.00268,0.369991 v -0.0703 0 a 0.95457788,0.95457788 0 0 0 -0.2257,0.292293 2.9599314,2.9599314 0 0 0 -0.30709,1.109974 4.1809031,4.1809031 0 0 1 -0.48469,1.343069 2.9858308,2.9858308 0 0 1 -0.22199,0.340392 v 0 l -0.0629,0.0999 a 2.7009374,2.7009374 0 0 0 1.25797,-0.203495 6.2639548,6.2639548 0 0 1 -0.36999,1.479965 1.2283715,1.2283715 0 0 0 1.13957,-0.680784 v -0.0296 l 0.0481,-0.0666 a 3.1227276,3.1227276 0 0 0 0.2294,-0.536487 l -0.0407,0.0444 c 0.074,-0.240495 0.14059,-0.484689 0.22199,-0.721484 a 1.1321738,1.1321738 0 0 1 0.1813,-0.369991 0.89537925,0.89537925 0 0 1 0.76588,-0.255294 l -0.1517,3.207826 h 0.0666 a 4.3769986,4.3769986 0 0 1 -0.32559,0.673384 c -0.52539,0.85098 -1.47997,1.431867 -1.83146,2.364245 a 3.4779194,3.4779194 0 0 0 -0.17019,1.398568 c 0,0.277493 0.0333,0.558687 0.0555,0.83618 v -0.0222 c 0.0518,0.739983 0.0666,1.442966 -0.33299,2.038653 -0.27379,0.40699 -0.71408,0.714083 -0.86578,1.176572 a 1.1469734,1.1469734 0 0 0 -0.0555,0.399591 4.487996,4.487996 0 0 0 0.2516,1.187673 0.0517988,0.0517988 0 0 0 0,-0.0222 1.8055582,1.8055582 0 0 1 0.0629,0.87318 c -0.1665,0.739983 -1.06558,1.357868 -1.02118,2.064552 a 0.79548156,0.79548156 0 0 0 0.0407,0.273794 1.4984653,1.4984653 0 0 0 0.83618,0.739983 3.2559245,3.2559245 0 0 0 1.87956,0.41439 2.4715427,2.4715427 0 0 0 0.70298,-0.240494 c -0.25899,0.595686 -0.52539,1.183972 -0.79548,1.742659 -0.0407,0.0888 -0.0851,0.177596 -0.1295,0.266394 0,0 -2.28655,-1.528065 -3.58522,1.587263 a 6.9114398,6.9114398 0 0 0 -0.80288,2.086752 4.9652849,4.9652849 0 0 1 -0.27379,0.85838 5.523972,5.523972 0 0 1 -2.47154,2.219948 C 105.53536,80.029009 94.835207,93.3746 94.646511,96.83032 a 20.160833,20.160833 0 0 1 -0.680784,3.98851 23.73495,23.73495 0 0 0 -0.636385,9.43108 18.044482,18.044482 0 0 0 0.654884,3.00803 c 1.135874,3.45202 1.894357,9.89357 1.894357,9.89357 l 1.228371,11.18114 a 31.819263,31.819263 0 0 0 0.199795,4.62119 c -1.254271,1.43187 -6.289854,7.39983 -4.365898,9.02409 1.479965,1.28017 4.069905,1.06928 5.523972,0.80659 -1.224672,3.03023 -3.152327,8.2989 -3.407621,11.91742 -0.369992,5.35377 0.632685,12.44651 2.219948,15.16965 1.587263,2.72313 6.87814,9.70857 6.87814,9.70857 0,0 -0.24789,9.58278 1.64276,13.0644 1.89066,3.48162 2.65284,10.70385 2.65284,10.70385 0,0 1.76486,6.09746 0.88058,8.33961 -0.88428,2.24215 1.63906,4.1069 -1.01008,5.59797 -2.64913,1.49106 -6.03826,35.09739 -6.03826,35.09739 0,0 -1.36526,22.02559 0,23.14666 a 1.3874678,1.3874678 0 0 0 0.2331,0.1369 v 7.39982 c 0,0 -0.94718,1.55397 2.90443,1.86846 2.63804,0.2109 10.11557,0.68819 14.55176,0.96568 l 3.43722,0.21459 c 0,0 8.13981,1.62057 11.73613,0 3.59632,-1.62056 9.97127,-1.58356 9.02409,-5.86436 a 12.180118,12.180118 0 0 0 -0.50319,-1.71306 c -1.03967,-2.65654 -2.80453,-2.95993 -6.05676,-3.69991 -0.18869,-0.0407 -0.36999,-0.0777 -0.53648,-0.1073 -3.42612,-0.59569 -4.5509,0.99897 -6.47115,-1.07668 -1.66866,-1.79446 -6.98174,-3.80351 -8.791,-4.43989 0.0444,-0.1332 0.0999,-0.2627 0.1443,-0.39959 a 2.7083372,2.7083372 0 0 1 -1.37267,-0.66969 l 4.90239,0.31079 2.91923,0.1813 c 0,0 6.91884,1.38007 9.98977,0 3.07093,-1.38007 8.4728,-1.34307 7.66622,-4.98009 a 10.437458,10.437458 0 0 0 -0.42549,-1.45776 c -0.88428,-2.25695 -2.38645,-2.50484 -5.15028,-3.13013 -0.1591,-0.0333 -0.3071,-0.0666 -0.45509,-0.0925 -2.91183,-0.50689 -3.86641,0.84728 -5.49807,-0.91388 -1.39857,-1.50216 -5.81257,-3.18562 -7.39983,-3.75911 0,-0.82138 -1.10998,-1.99055 -1.80926,-3.16343 -0.82138,-1.36896 0.69558,-6.16035 0.69558,-6.16035 l 0.86578,-19.87964 a 3.840511,3.840511 0 0 1 1.03598,-0.29599 c 0,0 3.91451,-3.73692 3.03023,-7.71803 a 25.577507,25.577507 0 0 1 -0.28119,-3.63701 c 1.28757,-1.19508 3.05982,-2.95993 3.56301,-4.04771 0.82138,-1.77226 0,-10.35976 0,-10.35976 v -32.83674 l 6.54885,0.66229 5.94206,0.61048 1.80926,0.185 5.94206,0.59938 13.65639,1.38007 12.30591,-2.33094 5.32418,-1.00638 10.94804,-2.07195 v -26.78738 z m -90.13361,-88.76464 -0.76218,-0.0814 c 0.25159,0.0111 0.51799,0.0592 0.76218,0.0814 z"
     id="path17"
     inkscape:connector-curvature="0"
     style="fill:url(#07c62293-c0d3-4921-8e06-4e39241449cd);stroke-width:0.36999142" />
  <path
     d="m 181.4798,158.96668 c -3.69992,5.29458 -17.00111,2.49004 -17.00111,2.49004 l -10.30796,-9.64567 -1.38747,-1.30607 2.32725,-4.94309 c 0,0 0.73998,0.2035 2.00905,0.56609 6.66355,1.93505 27.48297,8.3877 24.36024,12.8387 z"
     id="path19"
     inkscape:connector-curvature="0"
     style="fill:#efb7b9;stroke-width:0.36999142" />
  <path
     d="m 157.11216,146.12798 c -0.45509,1.58356 -1.70196,3.95521 -2.94143,5.68307 l -1.38747,-1.30607 2.32725,-4.94309 c 0,0 0.74738,0.2035 2.00165,0.56609 z"
     id="path21"
     inkscape:connector-curvature="0"
     style="opacity:0.1;stroke-width:0.36999142" />
  <path
     d="m 121.75948,90.385069 c 0,0 -9.50138,4.214203 -9.03519,14.562861 a 170.61785,170.61785 0 0 0 2.17555,19.89074 c 0,0 -1.94245,15.57294 6.14556,19.58735 8.08801,4.0144 15.57294,7.31473 15.57294,7.31473 0,0 12.6537,1.36156 14.22617,1.92395 1.57246,0.56239 6.48595,-8.03621 5.57947,-9.37558 -0.90648,-1.33937 -12.52051,-4.1476 -14.00048,-6.38235 -1.47996,-2.23475 -4.90238,-3.61482 -4.90238,-3.61482 0,0 -3.53342,-2.13855 -3.77392,-4.0699 -0.24049,-1.93136 0.69189,-3.37063 0.92868,-4.21791 0.2368,-0.84728 0.83618,-9.02779 0.83618,-9.02779 0,0 3.98851,-29.118322 -13.75258,-26.591281 z"
     id="path23"
     inkscape:connector-curvature="0"
     style="fill:#dce6f2;stroke-width:0.36999142" />
  <path
     d="m 128.03084,124.41318 c 0,0 -13.0348,2.18295 -11.77313,6.74494 0,0 4.73219,-4.92458 11.77313,-6.74494 z"
     id="path25"
     inkscape:connector-curvature="0"
     style="opacity:0.1;stroke-width:0.36999142" />
  <path
     d="m 128.13073,126.25944 c 0,0 -7.16673,5.84956 -5.76446,6.14926 1.40227,0.29969 5.76446,-6.14926 5.76446,-6.14926 z"
     id="path27"
     inkscape:connector-curvature="0"
     style="opacity:0.1;stroke-width:0.36999142" />
  <path
     d="m 131.57535,128.29809 c 0,0 -1.92025,3.93301 -0.73998,3.66662 1.18027,-0.2664 0.73998,-3.66662 0.73998,-3.66662 z"
     id="path29"
     inkscape:connector-curvature="0"
     style="opacity:0.1;stroke-width:0.36999142" />
  <path
     d="m 157.59315,146.54607 -0.79178,-0.2257 c 0.22569,-0.73998 0.28859,-1.33937 0.1036,-1.61686 -0.90648,-1.33937 -12.51311,-4.1439 -13.98938,-6.38235 -1.47626,-2.23845 -4.90238,-3.61482 -4.90238,-3.61482 0,0 -3.53342,-2.13855 -3.77392,-4.0699 -0.24049,-1.93136 0.69189,-3.37063 0.92868,-4.21791 0.2368,-0.84728 0.83618,-9.03149 0.83618,-9.03149 0,0 3.97741,-29.114622 -13.76368,-26.58758 0,0 -9.50138,4.217902 -9.03889,14.56656 a 170.14056,170.14056 0 0 0 2.17925,19.89074 c 0,0 -1.94246,15.57294 6.14556,19.58735 8.08801,4.0144 15.57294,7.31473 15.57294,7.31473 0,0 12.65,1.35787 14.22617,1.92395 0.59568,0.2146 1.67236,-0.89168 2.72683,-2.41234 l 0.59939,0.55868 10.30796,9.64198 c 0,0 13.30119,2.80824 17.00111,-2.48634 3.12642,-4.4547 -17.68929,-10.90735 -24.36764,-12.8387 z"
     id="path31"
     inkscape:connector-curvature="0"
     style="opacity:0.1;stroke-width:0.36999142" />
  <path
     d="m 116.29101,51.543369 a 3.1449271,3.1449271 0 0 0 -1.02488,0.395891 c -0.36999,0.307093 -0.36999,0.832481 -0.46249,1.29127 a 4.2475016,4.2475016 0 0 1 -0.73998,1.768559 2.6602383,2.6602383 0 0 0 1.23207,-0.203495 6.341653,6.341653 0 0 1 -0.36999,1.479966 1.1987722,1.1987722 0 0 0 1.10997,-0.677084 7.1260349,7.1260349 0 0 0 0.46249,-1.29867 1.0692752,1.0692752 0 0 1 0.1776,-0.369992 c 0.34039,-0.40329 0.97308,-0.221995 1.49846,-0.170196 a 2.460443,2.460443 0 0 0 2.24955,-1.080375 c 0.55869,-0.84728 0.59199,-3.01543 -0.73998,-3.244825 -1.39117,-0.229394 -2.25695,1.687161 -3.39282,2.108951 z"
     id="path33"
     inkscape:connector-curvature="0"
     style="fill:#965d7b;stroke-width:0.36999142" />
  <g
     id="g41"
     style="opacity:0.1"
     transform="matrix(0.36999143,0,0,0.36999143,10.051672,7.7326848)">
    <path
       d="m 379.5,175.74 c 0.09,-0.49 0.15,-1 0.26,-1.49 v 0 c -0.95,0.83 -1,2.24 -1.25,3.49 a 11,11 0 0 1 -0.59,2.11 11.46,11.46 0 0 0 1.58,-4.11 z"
       transform="translate(-95.23,-55.03)"
       id="path35"
       inkscape:connector-curvature="0" />
    <path
       d="m 379.82,184 a 16.63,16.63 0 0 0 1,-4 7.16,7.16 0 0 1 -3.17,0.55 11.57,11.57 0 0 1 -1.15,2 7.12,7.12 0 0 0 3.32,-0.54 16.63,16.63 0 0 1 -1,4 3.25,3.25 0 0 0 3,-1.83 7.46,7.46 0 0 0 0.6,-1.43 3,3 0 0 1 -2.6,1.25 z"
       transform="translate(-95.23,-55.03)"
       id="path37"
       inkscape:connector-curvature="0" />
    <path
       d="m 388.6,177.2 c -1.42,-0.14 -3.14,-0.63 -4.06,0.46 a 3.09,3.09 0 0 0 -0.48,1 c -0.09,0.26 -0.17,0.53 -0.24,0.8 0.95,-0.75 2.49,-0.35 3.78,-0.22 a 6.68,6.68 0 0 0 6.08,-2.92 5.54,5.54 0 0 0 0.67,-1.57 6.66,6.66 0 0 1 -5.75,2.45 z"
       transform="translate(-95.23,-55.03)"
       id="path39"
       inkscape:connector-curvature="0" />
  </g>
  <polygon
     points="330.5,237.85 312.07,209 317.24,201 332.49,219.34 "
     id="polygon43"
     style="fill:#dce6f2"
     transform="matrix(0.36999143,0,0,0.36999143,10.051672,7.7326848)" />
  <polygon
     points="317.23,201 318.26,202.24 332.48,219.34 330.61,236.75 330.49,237.85 313.86,211.81 312.07,209 312.59,208.19 "
     id="polygon45"
     style="opacity:0.1"
     transform="matrix(0.36999143,0,0,0.36999143,10.051672,7.7326848)" />
  <path
     d="m 135.99675,72.914074 c -1.90915,0.547588 -3.73321,2.427144 -5.32047,4.709991 a 40.199568,40.199568 0 0 0 -2.87114,4.935686 c -0.52169,1.043376 -0.98048,2.046052 -1.36157,2.919232 l -0.26639,0.621586 c -0.64379,1.520664 -1.00268,2.538141 -1.00268,2.538141 0,0 -14.61466,-10.988746 -12.30221,-11.728728 0.77698,-0.247895 1.79816,-1.912856 2.80823,-4.010707 l 0.1258,-0.266394 c 0.64008,-1.346769 1.26907,-2.848934 1.82776,-4.262301 1.14327,-2.904433 1.99055,-5.427775 1.99055,-5.427775 0,0 22.19949,8.306308 16.37212,9.971269 z"
     id="path47"
     inkscape:connector-curvature="0"
     style="fill:#efb7b9;stroke-width:0.36999142" />
  <path
     d="m 144.73965,62.32492 c 0,0 3.37432,6.104858 7.90672,5.272377 4.53239,-0.83248 2.66763,-3.278124 2.66763,-3.278124 z"
     id="path49"
     inkscape:connector-curvature="0"
     style="fill:#444053;stroke-width:0.36999142" />
  <path
     d="m 138.2019,273.64552 c -2.98953,1.36527 -9.74927,0 -9.74927,0 l -2.84894,-0.17759 c -3.69991,-0.2368 -9.89357,-0.63639 -12.08392,-0.81398 -3.19672,-0.2627 -2.41234,-1.57247 -2.41234,-1.57247 v -7.91411 l 15.51004,-3.92931 c 0,0 6.13076,2.09785 7.81052,3.92931 1.59466,1.74635 2.52704,0.40329 5.37227,0.90647 0.1406,0.0259 0.2886,0.0555 0.44399,0.0925 2.70094,0.61789 4.16611,0.86208 5.03189,3.10053 a 10.396759,10.396759 0 0 1 0.41809,1.44297 c 0.79918,3.60371 -4.5065,3.57781 -7.49233,4.93568 z"
     id="path51"
     inkscape:connector-curvature="0"
     style="fill:#a36468;stroke-width:0.36999142" />
  <path
     d="m 145.27614,267.26687 a 11.595531,11.595531 0 0 1 -1.74636,0.89538 c -2.03496,0.92868 -3.97001,2.06085 -6.02716,2.93773 -2.05716,0.87688 -4.2734,1.50217 -6.50075,1.33567 -1.16548,-0.0851 -2.35685,-0.36999 -3.47052,-0.037 a 8.0140143,8.0140143 0 0 0 -1.92766,1.06928 c -3.69991,-0.2368 -9.89357,-0.63639 -12.08392,-0.81398 -3.19672,-0.2627 -2.41234,-1.57247 -2.41234,-1.57247 v -0.92498 c 0.1147,0 0.24419,-0.0333 0.39219,-0.0444 a 6.9854381,6.9854381 0 0 1 2.25695,0.3367 c 1.60576,0.43659 3.20412,0.86578 4.80989,1.29497 a 3.7998119,3.7998119 0 0 1 1.84995,-2.36055 5.8976633,5.8976633 0 0 1 2.98213,-0.68448 c 2.49005,0.0333 4.84689,1.21357 7.33323,1.33197 a 4.0403064,4.0403064 0 0 0 2.03126,-0.3404 c 0.34039,-0.17019 0.64008,-0.41809 0.97307,-0.60678 a 7.1038354,7.1038354 0 0 1 1.67607,-0.56609 36.910345,36.910345 0 0 0 4.79138,-1.54656 c 0.44399,-0.1739 0.96198,-0.48839 0.90278,-0.96198 -0.0777,-0.62899 -1.06557,-0.70298 -1.32457,-1.28017 a 0.73998285,0.73998285 0 0 1 0.0296,-0.65489 c 0.1406,0.0259 0.2886,0.0555 0.44399,0.0925 2.68984,0.61789 4.15501,0.86208 5.02079,3.10053 z"
     id="path53"
     inkscape:connector-curvature="0"
     style="opacity:0.1;stroke-width:0.36999142" />
  <path
     d="m 135.04217,290.96112 c -3.51491,1.60576 -11.46973,0 -11.46973,0 l -3.34842,-0.19609 c -4.3363,-0.2775 -11.63993,-0.73999 -14.21877,-0.95828 -3.76281,-0.3108 -2.83784,-1.84996 -2.83784,-1.84996 v -9.32748 l 18.25168,-4.6249 c 0,0 7.21483,2.46785 9.19059,4.6249 1.87585,2.05345 2.95993,0.47359 6.32315,1.06557 0.1665,0.0296 0.34039,0.0666 0.52169,0.1073 3.17822,0.73998 4.90238,1.01748 5.91986,3.65181 a 11.876725,11.876725 0 0 1 0.49209,1.69827 c 0.91758,4.2401 -5.30938,4.2068 -8.8243,5.80886 z"
     id="path55"
     inkscape:connector-curvature="0"
     style="fill:#a36468;stroke-width:0.36999142" />
  <path
     d="m 143.36698,283.45399 a 13.774781,13.774781 0 0 1 -2.05345,1.05448 c -2.39385,1.09148 -4.67299,2.42344 -7.09274,3.45572 -2.41974,1.03228 -5.02818,1.76486 -7.65142,1.57246 -1.36897,-0.0999 -2.77124,-0.44399 -4.06991,-0.0444 a 9.4347813,9.4347813 0 0 0 -2.27544,1.27277 c -4.3363,-0.2775 -11.63993,-0.73999 -14.21877,-0.95828 -3.76281,-0.3108 -2.83784,-1.84996 -2.83784,-1.84996 v -1.08777 a 4.6248928,4.6248928 0 0 1 0.46249,-0.0518 8.1176119,8.1176119 0 0 1 2.65654,0.39589 l 5.65717,1.52436 a 4.4768962,4.4768962 0 0 1 2.19405,-2.77863 6.90404,6.90404 0 0 1 3.51122,-0.80658 c 2.93033,0.0407 5.70156,1.42816 8.6282,1.56876 a 4.7765893,4.7765893 0 0 0 2.38274,-0.39589 c 0.40329,-0.2035 0.73998,-0.49579 1.14698,-0.71409 a 8.0473135,8.0473135 0 0 1 1.97205,-0.66598 44.284274,44.284274 0 0 0 5.60907,-1.82036 c 0.52169,-0.20719 1.13217,-0.57718 1.06187,-1.13217 -0.0925,-0.73998 -1.25427,-0.82878 -1.56136,-1.50957 a 0.89167934,0.89167934 0 0 1 0.037,-0.76958 c 0.1665,0.0296 0.34039,0.0666 0.52169,0.1073 3.17822,0.71038 4.90238,0.99898 5.91986,3.63331 z"
     id="path57"
     inkscape:connector-curvature="0"
     style="opacity:0.1;stroke-width:0.36999142" />
  <path
     d="m 127.08736,226.9563 -0.98788,23.24657 c 0,0 -1.47996,4.74699 -0.67708,6.10485 0.80288,1.35787 2.15705,2.71204 1.66496,3.51492 -0.49209,0.80288 -6.41195,9.48288 -8.32481,6.15296 -1.91285,-3.32992 -3.79981,-17.75959 -3.79981,-17.75959 l 1.76486,-17.82249 z"
     id="path59"
     inkscape:connector-curvature="0"
     style="fill:#444053;stroke-width:0.36999142" />
  <path
     d="m 131.37186,169.03785 2.74534,3.67031 v 31.92286 c 0,0 0.80288,8.5098 0,10.26726 -0.80289,1.75746 -4.87279,5.27238 -4.87279,5.27238 l -3.42242,-17.57459 0.73998,-18.59207 z"
     id="path61"
     inkscape:connector-curvature="0"
     style="fill:#444053;stroke-width:0.36999142" />
  <path
     d="m 127.08736,226.9563 -0.98788,23.24657 c 0,0 -1.47996,4.74699 -0.67708,6.10485 0.80288,1.35787 2.15705,2.71204 1.66496,3.51492 -0.49209,0.80288 -6.41195,9.48288 -8.32481,6.15296 -1.91285,-3.32992 -3.79981,-17.75959 -3.79981,-17.75959 l 1.76486,-17.82249 z"
     id="path63"
     inkscape:connector-curvature="0"
     style="opacity:0.1;stroke-width:0.36999142" />
  <path
     d="m 131.37186,169.03785 2.74534,3.67031 v 31.92286 c 0,0 0.80288,8.5098 0,10.26726 -0.80289,1.75746 -4.87279,5.27238 -4.87279,5.27238 l -3.42242,-17.57459 0.73998,-18.59207 z"
     id="path65"
     inkscape:connector-curvature="0"
     style="opacity:0.1;stroke-width:0.36999142" />
  <path
     d="m 134.1172,155.42216 v 17.2675 l -3.08203,13.44179 c 0,0 -0.98788,32.43715 -0.1258,36.38126 0.86208,3.94411 -2.95993,7.64772 -2.95993,7.64772 0,0 -2.21995,0.24789 -2.21995,1.97205 0,1.72416 -3.69991,6.65985 -3.69991,6.65985 l 0.12209,9.61978 c 0,0 1.60577,18.00748 -0.86208,21.4595 -2.46784,3.45202 0.86208,3.94781 0.86208,3.94781 -3.08203,10.11186 -17.88168,7.76982 -19.21735,6.65984 -1.33567,-1.10997 0,-22.93946 0,-22.93946 0,0 3.30772,-33.29923 5.89766,-34.7792 2.58994,-1.47997 0.1258,-3.32992 0.98788,-5.54987 0.86208,-2.21995 -0.86208,-8.26191 -0.86208,-8.26191 0,0 -0.73998,-7.15563 -2.58994,-10.60765 -1.84996,-3.45202 -1.60576,-12.9497 -1.60576,-12.9497 0,0 -5.179883,-6.90774 -6.719048,-9.61978 -1.539164,-2.71204 -2.530741,-9.74187 -2.16075,-15.04755 0.251595,-3.58522 2.134851,-8.8058 3.329923,-11.81013 0.573487,-1.43926 0.987875,-2.37164 0.987875,-2.37164 l 0.35149,0.0925 20.20893,5.29087 z"
     id="path67"
     inkscape:connector-curvature="0"
     style="fill:#444053;stroke-width:0.36999142" />
  <path
     d="m 135.99675,72.914074 c -1.90915,0.547588 -3.73321,2.427144 -5.32047,4.709991 h -0.4144 a 13.216094,13.216094 0 0 1 -11.46973,-6.633946 13.016298,13.016298 0 0 1 -1.16177,-2.645439 c 1.14327,-2.904433 1.99055,-5.427774 1.99055,-5.427774 0,0 22.20319,8.332207 16.37582,9.997168 z"
     id="path69"
     inkscape:connector-curvature="0"
     style="opacity:0.1;stroke-width:0.36999142" />
  <path
     d="m 143.48908,63.664289 a 13.227193,13.227193 0 1 1 -24.74503,-6.48225 12.9238,12.9238 0 0 1 1.39857,-2.020153 13.38629,13.38629 0 0 1 3.04133,-2.671338 13.227193,13.227193 0 0 1 20.28663,10.204363 c 0.007,0.325593 0.0185,0.647485 0.0185,0.969378 z"
     id="path71"
     inkscape:connector-curvature="0"
     style="fill:#efb7b9;stroke-width:0.36999142" />
  <path
     d="m 132.37454,95.328155 -0.0444,0.40699 -6.15296,-9.619777 c -0.64379,1.520665 -1.00268,2.538141 -1.00268,2.538141 0,0 -14.61466,-11.003545 -12.30221,-11.743527 0.77698,-0.247895 1.79816,-1.912856 2.80823,-4.010707 l 0.1258,-0.266394 c 1.07297,3.196726 7.30733,9.586478 9.90097,12.146818 0.29969,0.295993 0.54759,0.540188 0.73998,0.717784 l 0.39589,0.369991 0.2072,0.207195 c 0.94348,0.973078 4.92458,5.264978 5.32418,9.253486 z"
     id="path73"
     inkscape:connector-curvature="0"
     style="opacity:0.1;stroke-width:0.36999142" />
  <path
     d="m 136.97353,127.9688 -0.67339,21.6704 -0.11839,3.85901 c 0,0 -7.97702,-0.73999 -15.42125,-1.55397 -5.99386,-0.65488 -11.64362,-1.36157 -12.5131,-1.77596 -1.10998,-0.52168 -3.48902,-0.92497 -5.36488,-1.18027 -1.45037,-0.19609 -2.58994,-0.29969 -2.58994,-0.29969 0,0 -0.42549,0.1258 -1.080375,0.24419 -1.428167,0.259 -3.936709,0.46989 -5.398175,-0.79918 -1.868456,-1.62426 3.04133,-7.52562 4.266001,-8.94269 l 0.270094,-0.30709 -0.462489,-4.27341 -1.202472,-11.08124 c 0,0 -0.739983,-6.38235 -1.849957,-9.80477 a 18.085181,18.085181 0 0 1 -0.640085,-2.97843 23.857047,23.857047 0 0 1 0.621585,-9.34599 20.379128,20.379128 0 0 0 0.665985,-3.955204 C 95.667687,94.022085 106.11995,80.794892 108.70989,79.592419 a 5.4906728,5.4906728 0 0 0 2.64913,-2.641738 5.046683,5.046683 0 0 0 0.40329,-1.150674 c 1.10998,-4.809888 3.91821,-2.900732 3.91821,-2.900732 0.67709,3.762812 11.15894,13.722982 11.15894,13.722982 l 0.2072,0.207195 c 1.03968,1.065575 5.67197,6.067859 5.34268,10.33756 a 12.53161,12.53161 0 0 0 0.69928,4.676688 79.085667,79.085667 0 0 1 3.64441,20.71952 z"
     id="path75"
     inkscape:connector-curvature="0"
     style="fill:#dce6f2;stroke-width:0.36999142" />
  <path
     d="m 122.12207,102.23589 c 0,0 -2.58994,6.28986 -4.53239,7.30734 -1.94246,1.01747 5.45737,2.14595 4.53239,-7.30734 z"
     id="path77"
     inkscape:connector-curvature="0"
     style="opacity:0.1;stroke-width:0.36999142" />
  <path
     d="m 124.06453,113.98312 c 0,0 -5.91986,0.73999 -5.91986,1.84996 0,1.10997 5.91986,-1.84996 5.91986,-1.84996 z"
     id="path79"
     inkscape:connector-curvature="0"
     style="opacity:0.1;stroke-width:0.36999142" />
  <path
     d="m 130.26188,121.19796 c 0,0 -8.6023,18.31457 -11.00724,18.86956 -2.40494,0.55499 11.00724,-18.86956 11.00724,-18.86956 z"
     id="path81"
     inkscape:connector-curvature="0"
     style="opacity:0.1;stroke-width:0.36999142" />
  <path
     d="m 126.67667,87.550935 -7.11494,3.093128 -8.5875,-12.971899 a 5.046683,5.046683 0 0 0 0.40329,-1.150673 c 1.10998,-4.809889 3.91821,-2.900733 3.91821,-2.900733 0.67709,3.762813 11.15894,13.722982 11.15894,13.722982 z"
     id="path83"
     inkscape:connector-curvature="0"
     style="opacity:0.1;stroke-width:0.36999142" />
  <path
     d="m 127.04666,86.810952 -7.11494,3.093128 -8.5875,-12.971899 a 5.046683,5.046683 0 0 0 0.40329,-1.150673 c 1.10998,-4.809889 3.91821,-2.900733 3.91821,-2.900733 0.67709,3.762813 11.15894,13.722982 11.15894,13.722982 z"
     id="path85"
     inkscape:connector-curvature="0"
     style="fill:#dce6f2;stroke-width:0.36999142" />
  <path
     d="m 136.18175,153.49821 c 0,0 -7.97702,-0.73999 -15.42125,-1.55397 l 13.3567,3.49642 v 4.06991 c -0.58459,0.52908 -1.09148,0.80288 -1.42077,0.66228 -1.53917,-0.64748 -14.10037,-2.68244 -14.10037,-2.68244 0,0 -7.29624,-3.69991 -15.16965,-8.13981 a 6.0789591,6.0789591 0 0 1 -0.55499,-0.34779 8.7465973,8.7465973 0 0 1 -2.33095,-2.33465 c -1.454062,-2.10525 -2.164445,-4.80988 -2.471538,-7.46272 a 32.270652,32.270652 0 0 1 -0.192396,-4.5805 37.55783,37.55783 0 0 1 0.473589,-5.17618 170.22566,170.22566 0 0 1 -1.109974,-19.97953 c 0.0925,-10.359763 9.804769,-14.059677 9.804769,-14.059677 17.85209,-1.572464 12.31702,27.286867 12.31702,27.286867 0,0 -1.03228,8.13981 -1.31347,8.97229 -0.2812,0.83248 -1.29127,2.21995 -1.15438,4.16241 0.1369,1.94245 3.54822,4.266 3.54822,4.266 0,0 3.32993,1.56136 4.70259,3.87381 0.99898,1.70566 7.48863,4.0181 11.15524,5.66827 z"
     id="path87"
     inkscape:connector-curvature="0"
     style="opacity:0.1;stroke-width:0.36999142" />
  <path
     d="m 142.16081,55.450479 a 4.1883029,4.1883029 0 0 1 -0.36999,1.768559 10.933247,10.933247 0 0 1 -0.65859,1.317169 6.0678594,6.0678594 0 0 1 -1.62056,2.012754 c -0.85468,0.610486 -1.93505,0.780682 -2.95993,1.028576 -1.02488,0.247894 -2.09045,0.643785 -2.67504,1.516965 a 5.305677,5.305677 0 0 0 -0.62528,1.812958 3.8997096,3.8997096 0 0 1 -0.73999,1.753759 1.4540663,1.4540663 0 0 1 -1.73156,0.414391 1.7500594,1.7500594 0 0 1 -0.66968,-0.86208 c -0.42179,-0.950878 -0.52909,-2.005354 -0.69929,-3.03023 -0.17019,-1.024877 -0.41069,-2.079352 -1.03967,-2.904433 -0.62899,-0.825081 -1.74266,-1.368968 -2.73054,-1.047076 a 2.630639,2.630639 0 0 0 -1.47996,1.435567 8.2286093,8.2286093 0 0 0 -0.55869,2.042353 q -0.68819,3.766512 -1.62426,7.488626 a 0.68818405,0.68818405 0 0 1 -0.1221,0.281194 0.53278765,0.53278765 0 0 1 -0.36999,0.155396 c -0.82878,0.110997 -1.62426,-0.469889 -2.46044,-0.406991 a 1.4133672,1.4133672 0 0 0 -0.2553,0.0407 13.219794,13.219794 0 0 1 1.33567,-15.095651 l 0.0666,-0.0185 a 3.9885076,3.9885076 0 0 0 1.47996,-0.932379 15.621038,15.621038 0 0 0 1.47997,-1.71306 l 0.29599,-0.369991 a 16.875309,16.875309 0 0 1 2.88594,-2.741637 2.9599314,2.9599314 0 0 1 0.98417,-0.532787 2.9155324,2.9155324 0 0 1 0.93238,-0.0296 23.520355,23.520355 0 0 0 3.85161,0.144297 24.711727,24.711727 0 0 1 2.70464,-0.273794 c 2.34205,0.0666 4.34,1.72046 5.81996,3.533418 0.79549,0.928679 1.50587,1.997954 1.55397,3.211526 z"
     id="path89"
     inkscape:connector-curvature="0"
     style="opacity:0.1;stroke-width:0.36999142" />
  <path
     d="m 117.01619,57.533531 c -0.51429,0.84358 -1.44296,1.417067 -1.79076,2.342045 -0.51059,1.343069 0.3515,3.015431 -0.44029,4.214203 -0.26269,0.40329 -0.69558,0.702983 -0.84358,1.165473 -0.25159,0.780682 0.43659,1.613162 0.259,2.416044 -0.1776,0.802881 -1.23577,1.479965 -0.95458,2.264347 a 1.4799657,1.4799657 0 0 0 0.81398,0.739983 3.1819263,3.1819263 0 0 0 1.84996,0.410691 c 1.01007,-0.166497 1.76116,-1.158074 2.78603,-1.232072 0.83248,-0.0592 1.62796,0.517988 2.45675,0.410691 a 0.55498714,0.55498714 0 0 0 0.36999,-0.159097 0.64008517,0.64008517 0 0 0 0.12209,-0.281193 q 0.93238,-3.718414 1.62797,-7.488627 a 8.0658131,8.0658131 0 0 1 0.55498,-2.042352 2.6528385,2.6528385 0 0 1 1.47997,-1.435567 c 0.98788,-0.318193 2.09785,0.221995 2.73054,1.047076 0.63268,0.825081 0.87318,1.879556 1.04337,2.904432 0.1702,1.024877 0.2775,2.079352 0.69559,3.03023 a 1.768559,1.768559 0 0 0 0.67338,0.86578 c 0.55499,0.321893 1.30237,0.0666 1.72786,-0.41439 a 3.8590106,3.8590106 0 0 0 0.73998,-1.75746 5.2834776,5.2834776 0 0 1 0.62529,-1.809258 c 0.58459,-0.873179 1.65386,-1.26907 2.67504,-1.516964 1.02117,-0.247895 2.09785,-0.421791 2.95993,-1.032277 a 6.0900589,6.0900589 0 0 0 1.62056,-2.009053 c 0.54759,-0.954578 1.05818,-1.990554 1.01378,-3.089428 -0.0481,-1.198773 -0.75849,-2.268048 -1.51697,-3.200426 -1.47996,-1.812958 -3.48162,-3.46682 -5.82366,-3.529718 a 23.013467,23.013467 0 0 0 -2.70464,0.273793 23.150363,23.150363 0 0 1 -3.85161,-0.147996 3.0265299,3.0265299 0 0 0 -0.93238,0.0333 2.7897353,2.7897353 0 0 0 -0.98048,0.532788 16.882709,16.882709 0 0 0 -2.88963,2.737936 21.204209,21.204209 0 0 1 -1.78336,2.071952 4.014407,4.014407 0 0 1 -1.47996,0.936078 c -0.37,0.103598 -0.73999,0.0296 -1.09148,0.144297 -1.09147,0.344092 -1.23577,1.768559 -1.74266,2.604739 z"
     id="path91"
     inkscape:connector-curvature="0"
     style="fill:#965d7b;stroke-width:0.36999142" />
  <path
     d="m 152.64637,67.593598 c -2.95994,0.543887 -5.41298,-1.849958 -6.77085,-3.596317 a 14.511064,14.511064 0 0 1 -1.13587,-1.672361 l 10.15996,1.916555 0.41069,0.0777 c 0,0 1.86846,2.445644 -2.66393,3.274425 z"
     id="path93"
     inkscape:connector-curvature="0"
     style="opacity:0.1;stroke-width:0.36999142" />
  <g
     id="g101"
     style="opacity:0.1"
     transform="matrix(0.36999143,0,0,0.36999143,10.051672,7.7326848)">
    <path
       d="m 376.72,214.17 a 8.33,8.33 0 0 0 -0.58,-3.84 c 0,0.1 -0.09,0.2 -0.12,0.3 -0.43,1.34 0.15,2.73 0.52,4.12 a 3,3 0 0 0 0.18,-0.58 z"
       transform="translate(-95.23,-55.03)"
       id="path95"
       inkscape:connector-curvature="0" />
    <path
       d="m 379.1,197.8 a 22.22,22.22 0 0 0 0.08,4.15 22.28,22.28 0 0 0 -0.08,-4.15 z"
       transform="translate(-95.23,-55.03)"
       id="path97"
       inkscape:connector-curvature="0" />
    <path
       d="m 448.55,188.45 a 16.4,16.4 0 0 1 -4.38,5.44 c -2.31,1.65 -5.22,2.11 -8,2.78 -2.78,0.67 -5.65,1.74 -7.23,4.1 a 14.41,14.41 0 0 0 -1.69,4.9 10.47,10.47 0 0 1 -2,4.75 c -1.15,1.3 -3.17,2 -4.67,1.12 a 4.78,4.78 0 0 1 -1.82,-2.34 c -1.13,-2.57 -1.43,-5.41 -1.88,-8.19 -0.45,-2.78 -1.12,-5.62 -2.82,-7.85 -1.7,-2.23 -4.71,-3.7 -7.38,-2.83 a 7.14,7.14 0 0 0 -4,3.88 21.8,21.8 0 0 0 -1.5,5.52 q -1.87,10.19 -4.4,20.24 a 1.73,1.73 0 0 1 -0.33,0.76 1.5,1.5 0 0 1 -1,0.43 c -2.24,0.29 -4.39,-1.27 -6.64,-1.11 -2.77,0.2 -4.8,2.88 -7.53,3.32 a 8.45,8.45 0 0 1 -5,-1.11 5.35,5.35 0 0 1 -1.83,-1.3 2.7,2.7 0 0 0 -0.37,2.33 3.9,3.9 0 0 0 2.2,2 8.45,8.45 0 0 0 5,1.11 c 2.73,-0.44 4.76,-3.12 7.53,-3.32 2.25,-0.16 4.4,1.4 6.64,1.11 a 1.5,1.5 0 0 0 1,-0.43 1.73,1.73 0 0 0 0.33,-0.76 q 2.52,-10 4.4,-20.24 a 21.8,21.8 0 0 1 1.5,-5.52 7.14,7.14 0 0 1 4,-3.88 c 2.67,-0.87 5.67,0.6 7.38,2.83 1.71,2.23 2.36,5.08 2.82,7.85 0.46,2.77 0.75,5.62 1.88,8.19 a 4.78,4.78 0 0 0 1.82,2.34 c 1.5,0.87 3.52,0.18 4.67,-1.12 a 10.47,10.47 0 0 0 2,-4.75 14.41,14.41 0 0 1 1.69,-4.9 c 1.58,-2.36 4.47,-3.42 7.23,-4.1 2.76,-0.68 5.67,-1.13 8,-2.78 a 16.4,16.4 0 0 0 4.38,-5.44 c 1.48,-2.57 2.86,-5.37 2.74,-8.34 a 10.74,10.74 0 0 0 -0.12,-1.14 19.65,19.65 0 0 1 -2.62,6.45 z"
       transform="translate(-95.23,-55.03)"
       id="path99"
       inkscape:connector-curvature="0" />
  </g>
  <path
     d="m 141.80562,57.207938 a 13.071797,13.071797 0 0 1 1.64646,5.494373 c -3.29662,-1.849957 -6.39715,-3.88121 -7.96222,-4.587894 -2.72683,-1.232071 -12.9238,-1.047076 -16.75691,-0.932378 a 12.9238,12.9238 0 0 1 1.39857,-2.020153 13.38629,13.38629 0 0 1 3.05243,-2.671338 13.234593,13.234593 0 0 1 18.64017,4.70999 z"
     id="path103"
     inkscape:connector-curvature="0"
     style="opacity:0.1;stroke-width:0.36999142" />
  <path
     d="m 153.57134,66.024834 c -1.77965,0.547587 -4.68409,-0.510588 -7.69582,-2.027553 a 14.511064,14.511064 0 0 1 -1.13587,-1.672361 l 10.15996,1.916555 c 0.67339,0.45879 0.84358,1.113674 -1.32827,1.783359 z"
     id="path105"
     inkscape:connector-curvature="0"
     style="opacity:0.1;stroke-width:0.36999142" />
  <path
     d="m 131.04997,44.380335 c 0,0 -9.71228,-0.554987 -12.44282,4.717391 l -0.44029,4.672992 -0.73998,-0.0814 -0.14799,3.178226 c 0,0 14.84405,-0.647485 18.22207,0.87688 3.37802,1.524364 13.87468,9.205386 18.08148,7.910416 4.20681,-1.29497 -0.36999,-2.497442 -0.36999,-2.497442 0,0 -5.79036,-2.453043 -5.79036,-4.376998 0,-1.923956 -1.43557,-12.08762 -16.37212,-14.400067 z"
     id="path107"
     inkscape:connector-curvature="0"
     style="fill:#444053;stroke-width:0.36999142" />
  <path
     d="m 112.3173,217.61032 c 0,0 6.19736,6.01236 8.87979,5.54987 0,0 -7.58482,-0.64748 -8.87979,-5.54987 z"
     id="path109"
     inkscape:connector-curvature="0"
     style="opacity:0.1;stroke-width:0.36999142" />
  <path
     d="m 111.02233,220.39636 c 0,0 0.55499,3.09312 2.03495,2.78973 1.47997,-0.30339 -2.03495,-2.78973 -2.03495,-2.78973 z"
     id="path111"
     inkscape:connector-curvature="0"
     style="opacity:0.1;stroke-width:0.36999142" />
  <path
     d="m 120.73461,272.09156 c 0,0 -8.7984,6.84484 -7.31474,7.02984 1.48367,0.18499 7.31474,-7.02984 7.31474,-7.02984 z"
     id="path113"
     inkscape:connector-curvature="0"
     style="opacity:0.1;stroke-width:0.36999142" />
  <polygon
     points="407.96,407.7 334.8,403.87 330.96,347.33 407.96,334.8 "
     id="polygon115"
     style="fill:#0f52ba"
     transform="matrix(0.36999143,0,0,0.36999143,10.051672,7.7326848)" />
  <polygon
     points="407.96,407.7 334.8,403.87 330.96,347.33 407.96,334.8 "
     id="polygon117"
     style="opacity:0.05"
     transform="matrix(0.36999143,0,0,0.36999143,10.051672,7.7326848)" />
  <polygon
     points="495.19,405.15 407.96,407.7 407.96,334.8 500.3,341.71 "
     id="polygon119"
     style="fill:#0f52ba"
     transform="matrix(0.36999143,0,0,0.36999143,10.051672,7.7326848)" />
  <polygon
     points="495.19,405.15 407.96,407.7 407.96,334.8 500.3,341.71 "
     id="polygon121"
     style="opacity:0.1"
     transform="matrix(0.36999143,0,0,0.36999143,10.051672,7.7326848)" />
  <polygon
     points="500.3,341.71 515.39,318.94 436.35,312.55 407.96,334.8 "
     id="polygon123"
     style="fill:#0f52ba"
     transform="matrix(0.36999143,0,0,0.36999143,10.051672,7.7326848)" />
  <polygon
     points="407.96,334.8 330.96,347.33 303.08,323.03 372.4,314.59 "
     id="polygon125"
     style="fill:#0f52ba"
     transform="matrix(0.36999143,0,0,0.36999143,10.051672,7.7326848)" />
  <polygon
     points="330.96,443.77 330.96,347.33 407.95,352.57 424.84,353.73 424.84,453.4 388.77,449.7 373.08,448.1 368.3,447.6 352.62,445.99 "
     id="polygon127"
     style="fill:#0f52ba"
     transform="matrix(0.36999143,0,0,0.36999143,10.051672,7.7326848)" />
  <polygon
     points="500.3,341.71 500.3,438.91 471.39,444.46 457.33,447.16 424.84,453.4 424.84,353.73 "
     id="polygon129"
     style="fill:#0f52ba"
     transform="matrix(0.36999143,0,0,0.36999143,10.051672,7.7326848)" />
  <polygon
     points="500.3,341.71 500.3,438.91 471.39,444.46 457.33,447.16 424.84,453.4 424.84,353.73 "
     id="polygon131"
     style="opacity:0.05"
     transform="matrix(0.36999143,0,0,0.36999143,10.051672,7.7326848)" />
  <polygon
     points="424.84,353.73 411.02,377.01 303.08,368.31 330.96,347.33 "
     id="polygon133"
     style="fill:#0f52ba"
     transform="matrix(0.36999143,0,0,0.36999143,10.051672,7.7326848)" />
  <polygon
     points="424.84,353.73 411.02,377.01 303.08,368.31 330.96,347.33 "
     id="polygon135"
     style="opacity:0.1;fill:#ffffff"
     transform="matrix(0.36999143,0,0,0.36999143,10.051672,7.7326848)" />
  <polygon
     points="449.4,375.73 530.23,362.17 500.3,341.71 424.84,353.73 "
     id="polygon137"
     style="fill:#0f52ba"
     transform="matrix(0.36999143,0,0,0.36999143,10.051672,7.7326848)" />
  <polygon
     points="449.4,375.73 530.23,362.17 500.3,341.71 424.84,353.73 "
     id="polygon139"
     style="opacity:0.1;fill:#ffffff"
     transform="matrix(0.36999143,0,0,0.36999143,10.051672,7.7326848)" />
  <polygon
     points="457.33,426.39 470.5,423.07 471.39,444.46 457.33,447.16 "
     id="polygon141"
     style="opacity:0.1;fill:#ffffff"
     transform="matrix(0.36999143,0,0,0.36999143,10.051672,7.7326848)" />
  <polygon
     points="373.08,448.1 373.08,435.96 388.77,435.96 388.77,449.7 "
     id="polygon143"
     style="opacity:0.1;fill:#ffffff"
     transform="matrix(0.36999143,0,0,0.36999143,10.051672,7.7326848)" />
  <polygon
     points="352.62,445.99 352.62,440.29 368.3,440.29 368.3,447.6 "
     id="polygon145"
     style="opacity:0.1;fill:#ffffff"
     transform="matrix(0.36999143,0,0,0.36999143,10.051672,7.7326848)" />
  <path
     d="m 163.74611,166.33691 c -3.97741,5.08738 -17.1121,1.57246 -17.1121,1.57246 l -9.76038,-10.18216 -1.32457,-1.38007 2.58994,-4.80989 c 0,0 0.73998,0.2442 1.97576,0.67339 6.54144,2.28654 26.97977,9.84547 23.63135,14.12627 z"
     id="path147"
     inkscape:connector-curvature="0"
     style="opacity:0.1;stroke-width:0.36999142" />
  <path
     d="m 163.37612,165.59693 c -3.97741,5.08738 -17.11211,1.57246 -17.11211,1.57246 l -9.76037,-10.18217 -1.32457,-1.38006 2.58994,-4.80989 c 0,0 0.73998,0.24419 1.97575,0.67338 6.54145,2.28655 26.97978,9.84547 23.63136,14.12628 z"
     id="path149"
     inkscape:connector-curvature="0"
     style="fill:#efb7b9;stroke-width:0.36999142" />
  <path
     d="m 139.72997,151.47065 c -0.54019,1.55397 -1.91286,3.85531 -3.24113,5.51657 l -1.32457,-1.38006 2.58994,-4.80989 c 0,0 0.74368,0.24419 1.97576,0.67338 z"
     id="path151"
     inkscape:connector-curvature="0"
     style="opacity:0.1;stroke-width:0.36999142" />
  <path
     d="m 107.41492,93.929587 c 0,0 -9.71228,3.699914 -9.804778,14.059673 a 170.22566,170.22566 0 0 0 1.109975,19.97954 c 0,0 -2.774936,15.44714 5.087383,19.88704 7.86232,4.43989 15.16965,8.13981 15.16965,8.13981 0,0 12.56121,2.03495 14.10407,2.68244 1.54286,0.64748 6.90404,-7.67733 6.07156,-9.06479 -0.83248,-1.38747 -12.26892,-4.80989 -13.62679,-7.12234 -1.35786,-2.31244 -4.70259,-3.87011 -4.70259,-3.87011 0,0 -3.41132,-2.32724 -3.54821,-4.2697 -0.1369,-1.94245 0.86948,-3.32992 1.15437,-4.1624 0.28489,-0.83248 1.31717,-8.9723 1.31717,-8.9723 0,0 5.52027,-28.877826 -12.33181,-27.286863 z"
     id="path153"
     inkscape:connector-curvature="0"
     style="fill:#dce6f2;stroke-width:0.36999142" />
  <path
     d="m 111.85481,128.22779 c 0,0 -13.134693,1.47997 -12.117217,6.10486 0,0 4.991187,-4.66559 12.117217,-6.10486 z"
     id="path155"
     inkscape:connector-curvature="0"
     style="opacity:0.1;stroke-width:0.36999142" />
  <path
     d="m 111.85481,130.07775 c 0,0 -7.45532,5.45737 -6.08636,5.82736 1.36897,0.37 6.08636,-5.82736 6.08636,-5.82736 z"
     id="path157"
     inkscape:connector-curvature="0"
     style="opacity:0.1;stroke-width:0.36999142" />
  <path
     d="m 115.18473,132.2977 c 0,0 -2.12745,3.82571 -0.92497,3.62591 1.20247,-0.19979 0.92497,-3.62591 0.92497,-3.62591 z"
     id="path159"
     inkscape:connector-curvature="0"
     style="opacity:0.1;stroke-width:0.36999142" />
  <path
     d="m 251.94096,49.316021 c 0,0 -14.05967,-0.84728 -12.41691,9.016691 0,0 -0.32929,1.74266 1.25057,2.534441 0,0 0.0259,-0.739982 1.44297,-0.484688 a 6.4785499,6.4785499 0 0 0 1.52806,0.074 3.1708265,3.1708265 0 0 0 1.87216,-0.773282 v 0 c 0,0 3.95521,-1.631662 5.49437,-8.099112 0,0 1.13958,-1.413368 1.10998,-1.775959 l -2.37535,1.017476 c 0,0 0.81028,1.71306 0.1702,3.137527 0,0 -0.074,-3.074628 -0.53279,-3.00433 -0.0925,0 -1.23207,0.595686 -1.23207,0.595686 0,0 1.39487,2.982131 0.34039,5.153981 0,0 0.39959,-3.677715 -0.77698,-4.939386 l -1.67236,0.976778 c 0,0 1.63166,3.082028 0.52539,5.59797 0,0 0.28489,-3.859011 -0.87688,-5.361176 l -1.51697,1.180273 c 0,0 1.53547,3.041329 0.59939,5.128081 0,0 -0.1221,-4.491696 -0.92868,-4.832088 0,0 -1.32457,1.169173 -1.52436,1.650162 0,0 1.04707,2.219948 0.39589,3.370622 0,0 -0.39959,-2.993231 -0.73999,-3.008031 0,0 -1.32087,1.983154 -1.45776,3.329923 a 7.2000331,7.2000331 0 0 1 1.13587,-3.529718 3.9626082,3.9626082 0 0 0 -2.02015,1.047076 c 0,0 0.20349,-1.402268 2.34574,-1.524365 0,0 1.10998,-1.505865 1.38377,-1.598363 0,0 -2.13115,-0.177596 -3.42242,0.395891 0,0 1.13587,-1.32087 3.81461,-0.739983 l 1.47997,-1.220972 c 0,0 -2.80454,-0.369991 -3.99591,0.0407 0,0 1.36897,-1.169173 4.3992,-0.318192 l 1.62796,-0.973078 c 0,0 -2.39014,-0.517988 -3.81461,-0.329292 0,0 1.50216,-0.810281 4.2919,0.0666 l 1.16547,-0.521688 c 0,0 -1.75376,-0.344092 -2.26434,-0.39959 -0.51059,-0.0555 -0.54019,-0.196096 -0.54019,-0.196096 a 6.0530597,6.0530597 0 0 1 3.28922,0.369992 c 0,0 2.49744,-0.899079 2.44564,-1.054476 z"
     id="path161"
     inkscape:connector-curvature="0"
     style="fill:#0f52ba;stroke-width:0.36999142" />
  <path
     d="m 294.66017,98.650678 c 0,0 -14.05967,-0.847281 -12.41691,9.016692 0,0 -0.32929,1.74266 1.25057,2.53444 0,0 0.0259,-0.73998 1.44667,-0.48469 a 6.4785499,6.4785499 0 0 0 1.52806,0.074 3.1671266,3.1671266 0 0 0 1.84996,-0.76958 v 0 c 0,0 3.95891,-1.63536 5.49807,-8.10281 0,0 1.13588,-1.409672 1.09148,-1.772264 l -2.37535,1.013774 c 0,0 0.81029,1.71306 0.1739,3.13753 0,0 -0.0777,-3.07463 -0.53279,-3.00433 -0.0925,0 -1.23577,0.59569 -1.23577,0.59569 0,0 1.39857,2.98583 0.34409,5.15398 0,0 0.39959,-3.67772 -0.78068,-4.93939 l -1.65386,0.96568 c 0,0 1.63166,3.08203 0.52539,5.59797 0,0 0.28489,-3.85901 -0.87688,-5.36118 l -1.51327,1.18398 c 0,0 1.53177,3.03763 0.59939,5.12438 0,0 -0.1221,-4.4917 -0.92868,-4.83209 0,0 -1.32457,1.16917 -1.52806,1.65016 0,0 1.05077,2.21995 0.39959,3.37062 0,0 -0.39959,-2.99323 -0.73999,-3.00803 0,0 -1.32087,1.98316 -1.45776,3.32993 a 7.2222326,7.2222326 0 0 1 1.13957,-3.52972 3.9811077,3.9811077 0 0 0 -2.02385,1.04707 c 0,0 0.20719,-1.40226 2.34944,-1.52436 0,0 1.09148,-1.50587 1.38377,-1.59837 0,0 -2.13115,-0.17759 -3.42242,0.3959 0,0 1.13587,-1.32087 3.81091,-0.72149 l 1.47997,-1.22097 c 0,0 -2.80824,-0.36999 -3.99591,0.0407 0,0 1.36897,-1.16917 4.3992,-0.31819 l 1.62796,-0.97308 c 0,0 -2.39384,-0.51429 -3.81831,-0.32929 0,0 1.50586,-0.810284 4.2956,0.0666 l 1.16547,-0.521692 c 0,0 -1.75376,-0.344092 -2.26804,-0.399591 -0.51429,-0.0555 -0.54019,-0.196095 -0.54019,-0.196095 a 6.0641595,6.0641595 0 0 1 3.29292,0.369991 c 0,0 2.50114,-0.906479 2.45674,-1.061875 z"
     id="path163"
     inkscape:connector-curvature="0"
     style="opacity:0.1;fill:#0f52ba;stroke-width:0.36999142" />
  <path
     d="m 209.24765,89.892981 c 0,0 3.23743,-13.722982 -6.76714,-13.771081 0,0 -1.66126,-0.621586 -2.70834,0.799181 0,0 0.71409,0.151697 0.2294,1.505865 a 6.5858474,6.5858474 0 0 0 -0.33299,1.479966 3.1782263,3.1782263 0 0 0 0.44029,1.972054 v 0 c 0,0 0.93607,4.180904 7.02983,6.800443 0,0 1.19878,1.361568 1.56137,1.376368 l -0.59199,-2.512242 c 0,0 -1.82776,0.506888 -3.12273,-0.369991 0,0 3.04503,0.447689 3.04873,0 0,-0.0925 -0.36999,-1.31717 -0.36999,-1.31717 0,0 -3.17823,0.86578 -5.13918,-0.543887 0,0 3.55562,1.021176 5.00228,0.0777 l -0.66598,-1.820358 c 0,0 -3.32992,1.084075 -5.60907,-0.43659 0,0 3.75541,0.939779 5.43517,0.0518 l -0.90648,-1.694561 c 0,0 -3.25592,0.991577 -5.15398,-0.284893 0,0 4.4399,0.643785 4.92089,-0.0888 0,0 -0.92498,-1.505865 -1.36527,-1.787058 0,0 -2.35314,0.658584 -3.38912,-0.181296 0,0 3.01543,0.114697 3.08573,-0.203496 0,0 -1.72786,-1.639062 -3.04503,-2.009053 a 7.2518319,7.2518319 0 0 1 3.28922,1.72416 3.9922075,3.9922075 0 0 0 -0.68818,-2.17185 c 0,0 1.34677,0.44399 1.10997,2.58994 0,0 1.29497,1.33197 1.33567,1.635362 0,0 0.53649,-2.068252 0.1924,-3.44092 0,0 1.10997,1.346769 0.0629,3.88121 l 0.94717,1.683461 c 0,0 0.85838,-2.700937 0.64009,-3.944108 0,0 0.92128,1.546564 -0.43659,4.388098 l 0.68448,1.772259 c 0,0 0.91388,-2.271747 0.97308,-3.699914 0,0 0.54389,1.620562 -0.79918,4.221602 l 0.31819,1.235771 c 0,0 0.63639,-1.668661 0.77698,-2.16445 0.1406,-0.495788 0.2849,-0.499488 0.2849,-0.499488 a 6.0604595,6.0604595 0 0 1 -0.92128,3.181926 c 0,0 0.48469,2.58254 0.64378,2.56404 z"
     id="path165"
     inkscape:connector-curvature="0"
     style="opacity:0.1;fill:#0f52ba;stroke-width:0.36999142" />
  <path
     d="m 178.45697,94.569672 c 0,0 -11.29214,-8.446904 -15.32875,0.702984 0,0 -1.23207,1.27647 -0.34779,2.804535 0,0 0.42179,-0.595686 1.47997,0.392191 a 6.4785499,6.4785499 0 0 0 1.23577,0.902779 3.1745264,3.1745264 0 0 0 1.98685,0.369991 v 0 c 0,0 4.2031,0.810278 9.04259,-3.744313 0,0 1.72786,-0.554987 1.89066,-0.880579 l -2.54924,-0.44769 c 0,0 -0.2664,1.875857 -1.57987,2.715737 0,0 1.62427,-2.612139 1.20248,-2.800835 -0.0851,-0.0407 -1.35787,-0.184996 -1.35787,-0.184996 0,0 -0.47359,3.263325 -2.54554,4.495396 0,0 2.35684,-2.852634 2.06455,-4.554594 l -1.93506,-0.103598 c 0,0 -0.32929,3.47422 -2.63803,4.968985 0,0 2.35684,-3.067229 2.21994,-4.961585 l -1.91655,0.155396 c 0,0 -0.38849,3.378022 -2.31615,4.606394 0,0 2.36425,-3.818312 1.87956,-4.543495 0,0 -1.75006,0.247894 -2.18295,0.536487 0,0 -0.33669,2.419744 -1.52067,3.03393 0,0 1.31347,-2.719437 1.04708,-2.908133 0,0 -2.19405,0.928679 -3.05613,1.986854 a 7.2259325,7.2259325 0 0 1 2.89333,-2.323546 3.9848077,3.9848077 0 0 0 -2.26434,-0.236794 c 0,0 0.93977,-1.058176 2.79713,0.0185 0,0 1.73896,-0.654884 2.03495,-0.573486 0,0 -1.68346,-1.32087 -3.07832,-1.550264 0,0 1.67976,-0.480989 3.58521,1.479965 l 1.92026,-0.196095 c 0,0 -2.13485,-1.849957 -3.35952,-2.16075 0,0 1.78705,-0.225695 3.84791,2.14965 l 1.89435,0.0851 c 0,0 -1.71306,-1.746359 -3.00433,-2.375345 0,0 1.69826,0.147997 3.54822,2.416044 l 1.26167,0.203495 c 0,0 -1.27647,-1.250571 -1.67606,-1.576163 -0.39959,-0.325592 -0.34409,-0.462489 -0.34409,-0.462489 a 6.0789591,6.0789591 0 0 1 2.54924,2.116351 c 0,0 2.57144,0.595686 2.61954,0.443989 z"
     id="path167"
     inkscape:connector-curvature="0"
     style="opacity:0.1;fill:#0f52ba;stroke-width:0.36999142" />
  <path
     d="m 216.0518,16.090791 c 0,0 -11.29214,-8.4506041 -15.32875,0.702984 0,0 -1.23207,1.27647 -0.34779,2.804535 0,0 0.42179,-0.595686 1.47997,0.392191 a 6.5821475,6.5821475 0 0 0 1.23947,0.899079 3.1708265,3.1708265 0 0 0 1.98685,0.369991 v 0 c 0,0 4.2031,0.810282 9.04259,-3.748013 0,0 1.72786,-0.551287 1.88696,-0.880579 l -2.54924,-0.44029 c 0,0 -0.2627,1.875856 -1.57987,2.715737 0,0 1.62797,-2.61214 1.20618,-2.800835 -0.0851,-0.0407 -1.35787,-0.184996 -1.35787,-0.184996 0,0 -0.48839,3.270724 -2.56034,4.495396 0,0 2.35314,-2.852634 2.06455,-4.554595 l -1.93506,-0.103597 c 0,0 -0.33299,3.474219 -2.63804,4.965285 0,0 2.35685,-3.067229 2.21995,-4.961585 l -1.91285,0.155396 c 0,0 -0.39219,3.381722 -2.31985,4.610093 0,0 2.36795,-3.818311 1.88326,-4.543494 0,0 -1.75006,0.247894 -2.18295,0.536487 0,0 -0.33669,2.419744 -1.52067,3.03393 0,0 1.31347,-2.719437 1.04708,-2.911833 0,0 -2.19405,0.932379 -3.05613,1.990554 a 7.1926333,7.1926333 0 0 1 2.89333,-2.323546 3.9589083,3.9589083 0 0 0 -2.26804,-0.236794 c 0,0 0.94347,-1.058176 2.80083,0.0185 0,0 1.73896,-0.658585 2.03495,-0.573487 0,0 -1.68346,-1.320869 -3.07833,-1.553964 0,0 1.67607,-0.477289 3.58152,1.479966 l 1.92026,-0.196095 c 0,0 -2.13115,-1.849957 -3.35953,-2.16445 0,0 1.78706,-0.221995 3.85162,2.15335 l 1.89435,0.0814 c 0,0 -1.71306,-1.74636 -3.00803,-2.371645 0,0 1.70196,0.147997 3.55192,2.416044 l 1.25797,0.203495 c 0,0 -1.28017,-1.235771 -1.67976,-1.553964 -0.39959,-0.318192 -0.34409,-0.458789 -0.34409,-0.458789 a 6.0678594,6.0678594 0 0 1 2.54924,2.116351 c 0,0 2.57144,0.562387 2.63434,0.42179 z"
     id="path169"
     inkscape:connector-curvature="0"
     style="opacity:0.1;fill:#0f52ba;stroke-width:0.36999142" />
  <path
     d="m 259.2002,26.794643 c 0,0 -4.5139,-13.36039 -13.0274,-8.110212 0,0 -1.73896,0.369991 -1.87586,2.112651 0,0 0.68449,-0.251594 0.98788,1.154373 a 6.6598457,6.6598457 0 0 0 0.50689,1.446667 3.2041257,3.2041257 0 0 0 1.42076,1.439266 v 0 c 0,0 3.00433,3.05243 9.57538,2.042353 0,0 1.73526,0.525388 2.05345,0.344092 l -1.84995,-1.816658 c 0,0 -1.28017,1.394868 -2.84154,1.339369 0,0 2.82304,-1.228371 2.58994,-1.624262 -0.0481,-0.0777 -1.01377,-0.917579 -1.01377,-0.917579 0,0 -2.24215,2.416044 -4.6471,2.256948 0,0 3.55562,-1.013777 4.28081,-2.58994 l -1.53177,-1.180273 c 0,0 -2.24215,2.671338 -4.99118,2.58994 0,0 3.69991,-1.187672 4.63599,-2.830434 l -1.66496,-0.958278 c 0,0 -2.21995,2.56404 -4.5213,2.482642 0,0 4.11431,-1.801858 4.12541,-2.675038 0,0 -1.57987,-0.788081 -2.10155,-0.795481 0,0 -1.65017,1.801858 -2.95994,1.639062 0,0 2.61954,-1.498465 2.50855,-1.805558 0,0 -2.33095,-0.477289 -3.64442,-0.0925 a 7.2111329,7.2111329 0 0 1 3.69991,-0.277494 3.9922075,3.9922075 0 0 0 -1.73525,-1.479965 c 0,0 1.37636,-0.336693 2.29764,1.602062 0,0 1.80556,0.44769 1.99796,0.680785 0,0 -0.63639,-2.038653 -1.65387,-3.02283 0,0 1.65387,0.558687 2.10526,3.263324 l 1.69456,0.924979 c 0,0 -0.69929,-2.741637 -1.54287,-3.699915 0,0 1.60206,0.828781 1.94986,3.955209 l 1.51696,1.143273 c 0,0 -0.42179,-2.412344 -1.13217,-3.662915 0,0 1.31717,1.087775 1.55396,4.007007 l 0.92128,0.88058 c 0,0 -0.34039,-1.75376 -0.48099,-2.249548 -0.1406,-0.495789 -0.0259,-0.529088 -0.0259,-0.529088 a 6.1011586,6.1011586 0 0 1 0.89908,3.189326 c 0,0 1.79076,1.920256 1.92026,1.824058 z"
     id="path171"
     inkscape:connector-curvature="0"
     style="opacity:0.1;fill:#0f52ba;stroke-width:0.36999142" />
  <path
     d="m 229.74148,27.453228 c 0,0 -14.02268,-1.561364 -12.8646,8.387705 0,0 -0.41809,1.72416 1.10997,2.58994 0,0 0.0629,-0.739982 1.47997,-0.40699 a 6.8078422,6.8078422 0 0 0 1.52436,0.151696 3.1819263,3.1819263 0 0 0 1.90546,-0.677084 v 0 c 0,0 4.0366,-1.431867 5.91986,-7.814219 0,0 1.20617,-1.350469 1.18027,-1.71676 l -2.42344,0.895379 c 0,0 0.73998,1.75006 0,3.141227 0,0 0.0777,-3.074628 -0.36999,-3.02653 -0.0925,0 -1.26167,0.532788 -1.26167,0.532788 0,0 1.24317,3.052429 0.0814,5.17988 0,0 0.58458,-3.655515 -0.52909,-4.972685 l -1.72046,0.88798 c 0,0 1.47996,3.163426 0.24049,5.620169 0,0 0.48099,-3.840511 -0.60308,-5.398174 l -1.57247,1.109974 c 0,0 1.37637,3.111628 0.33669,5.15028 0,0 0.1073,-4.491695 -0.68078,-4.872787 0,0 -1.38377,1.109975 -1.60946,1.568764 0,0 0.93608,2.256948 0.22939,3.385422 0,0 -0.24789,-3.008031 -0.57348,-3.03763 0,0 -1.42077,1.912856 -1.62797,3.263324 a 7.2037331,7.2037331 0 0 1 1.31717,-3.470519 3.9811077,3.9811077 0 0 0 -2.07195,0.943478 c 0,0 0.27379,-1.387468 2.41974,-1.402268 0,0 1.16548,-1.446666 1.47997,-1.524364 0,0 -2.12005,-0.284894 -3.44092,0.221995 0,0 1.20247,-1.265371 3.84421,-0.529088 l 1.55767,-1.143274 c 0,0 -2.81564,-0.569786 -4.00701,-0.199795 0,0 1.42816,-1.109974 4.4103,-0.0925 l 1.67606,-0.891679 c 0,0 -2.36425,-0.636385 -3.79612,-0.521688 0,0 1.54287,-0.739983 4.28451,0.284893 l 1.19137,-0.462489 c 0,0 -1.73526,-0.43289 -2.24585,-0.514288 -0.51059,-0.0814 -0.52909,-0.221995 -0.52909,-0.221995 a 6.0863589,6.0863589 0 0 1 3.27073,0.532788 c 0,0 2.49374,-0.795482 2.46784,-0.950878 z"
     id="path173"
     inkscape:connector-curvature="0"
     style="opacity:0.1;fill:#0f52ba;stroke-width:0.36999142" />
  <path
     d="m 352.43064,136.29361 c 0,0 -14.01528,-1.56137 -12.85721,8.3766 0,0 -0.41809,1.72416 1.10998,2.58994 0,0 0.0629,-0.73998 1.47996,-0.41069 a 6.4008517,6.4008517 0 0 0 1.52437,0.1517 3.1560269,3.1560269 0 0 0 1.90545,-0.67709 v 0 c 0,0 4.03661,-1.43186 5.90137,-7.81052 0,0 1.20617,-1.35416 1.18027,-1.71676 l -2.42344,0.89168 c 0,0 0.73998,1.75376 0,3.14493 0,0 0.0777,-3.07833 -0.36999,-3.02653 -0.0925,0 -1.26168,0.52909 -1.26168,0.52909 0,0 1.24318,3.05243 0.0814,5.17988 0,0 0.58459,-3.65182 -0.52909,-4.97269 l -1.72046,0.89168 c 0,0 1.47997,3.16343 0.2442,5.62017 0,0 0.47729,-3.84051 -0.60679,-5.40187 l -1.57246,1.10997 c 0,0 1.37637,3.11163 0.33669,5.14658 0,0 0.1073,-4.49169 -0.68078,-4.86908 0,0 -1.38007,1.10997 -1.60947,1.56876 0,0 0.93978,2.25695 0.2294,3.38542 0,0 -0.24789,-3.00803 -0.57349,-3.03763 0,0 -1.42076,1.91286 -1.62796,3.26333 a 7.2037331,7.2037331 0 0 1 1.31717,-3.47052 3.9478085,3.9478085 0 0 0 -2.07195,0.94347 c 0,0 0.27379,-1.39116 2.41974,-1.40596 0,0 1.16917,-1.44667 1.47997,-1.52067 0,0 -2.12005,-0.28859 -3.44092,0.2183 0,0 1.20247,-1.26167 3.84791,-0.52539 l 1.55396,-1.14327 c 0,0 -2.78233,-0.52539 -3.99221,-0.1628 0,0 1.42817,-1.10998 4.4103,-0.0962 l 1.67606,-0.88798 c 0,0 -2.36424,-0.63638 -3.79611,-0.52169 0,0 1.54287,-0.73998 4.2845,0.2849 l 1.19137,-0.46619 c 0,0 -1.73526,-0.43289 -2.24584,-0.51059 -0.51059,-0.0777 -0.52909,-0.22199 -0.52909,-0.22199 a 6.0641595,6.0641595 0 0 1 3.27072,0.52908 c 0,0 2.50115,-0.81028 2.46415,-0.96937 z"
     id="path175"
     inkscape:connector-curvature="0"
     style="opacity:0.1;fill:#0f52ba;stroke-width:0.36999142" />
  <path
     d="m 373.85684,149.3839 c 0,0 -14.01528,-1.55766 -12.8572,8.37661 0,0 -0.41439,1.72416 1.10997,2.58994 0,0 0.0629,-0.73999 1.47997,-0.40699 a 6.5303487,6.5303487 0 0 0 1.52066,0.14799 3.1967259,3.1967259 0 0 0 1.89806,-0.67338 v 0 c 0,0 4.0329,-1.43187 5.89766,-7.81422 0,0 1.20987,-1.35047 1.18027,-1.71676 l -2.42344,0.89168 c 0,0 0.73998,1.75376 0,3.14493 0,0 0.0777,-3.07463 -0.36999,-3.02653 -0.0925,0 -1.26167,0.52908 -1.26167,0.52908 0,0 1.24317,3.05243 0.0814,5.17988 0,0 0.58458,-3.65181 -0.52909,-4.96898 l -1.72046,0.88798 c 0,0 1.47996,3.16342 0.24419,5.62017 0,0 0.47729,-3.84051 -0.60678,-5.39818 l -1.57247,1.10998 c 0,0 1.37637,3.11163 0.3404,5.15028 0,0 0.10359,-4.4954 -0.68449,-4.87279 0,0 -1.38007,1.10998 -1.60946,1.56876 0,0 0.93978,2.25695 0.22939,3.38543 0,0 -0.24789,-3.00803 -0.57348,-3.03763 0,0 -1.42077,1.91285 -1.62427,3.26332 a 7.2222326,7.2222326 0 0 1 1.31347,-3.47052 3.9811077,3.9811077 0 0 0 -2.07195,0.94348 c 0,0 0.2775,-1.39117 2.42345,-1.40227 0,0 1.16547,-1.44666 1.47996,-1.52436 0,0 -2.12005,-0.2849 -3.44092,0.22199 0,0 1.20247,-1.26537 3.84791,-0.52909 l 1.55397,-1.14327 c 0,0 -2.78234,-0.52539 -3.99221,-0.1628 0,0 1.42817,-1.10997 4.4103,-0.0925 l 1.67606,-0.89168 c 0,0 -2.36425,-0.63639 -3.79611,-0.52169 0,0 1.54286,-0.73998 4.2845,0.28489 l 1.19137,-0.46249 c 0,0 -1.73526,-0.43289 -2.24215,-0.51428 -0.50689,-0.0814 -0.53279,-0.222 -0.53279,-0.222 a 6.0863589,6.0863589 0 0 1 3.27073,0.53279 c 0,0 2.51224,-0.81768 2.47524,-0.97678 z"
     id="path177"
     inkscape:connector-curvature="0"
     style="opacity:0.1;fill:#0f52ba;stroke-width:0.36999142" />
  <path
     d="m 326.28704,39.122757 c 0,0 -11.29214,-8.446904 -15.32874,0.702984 0,0 -1.23207,1.27647 -0.34779,2.804535 0,0 0.42179,-0.595686 1.47996,0.392191 a 6.4785499,6.4785499 0 0 0 1.23577,0.902779 3.1782263,3.1782263 0 0 0 1.98686,0.369991 v 0 c 0,0 4.2031,0.810282 9.04629,-3.744313 0,0 1.72416,-0.554987 1.88695,-0.880579 l -2.54184,-0.45879 c 0,0 -0.26639,1.875857 -1.57986,2.715737 0,0 1.62426,-2.612139 1.20247,-2.800835 -0.0851,-0.0407 -1.35417,-0.184995 -1.35417,-0.184995 0,0 -0.47729,3.263324 -2.54924,4.495395 0,0 2.35685,-2.852634 2.06455,-4.554594 l -1.93505,-0.103598 c 0,0 -0.32929,3.47422 -2.63804,4.968985 0,0 2.36054,-3.067229 2.21995,-4.961585 l -1.91656,0.155397 c 0,0 -0.36999,3.378021 -2.31614,4.606393 0,0 2.36794,-3.818312 1.87955,-4.543495 0,0 -1.75006,0.247894 -2.18295,0.536488 0,0 -0.33299,2.419744 -1.51696,3.033929 0,0 1.30977,-2.719437 1.04337,-2.908132 0,0 -2.19405,0.928678 -3.05613,1.986854 a 7.2259325,7.2259325 0 0 1 2.89334,-2.323546 3.9848077,3.9848077 0 0 0 -2.26435,-0.236795 c 0,0 0.94348,-1.058175 2.80083,0.0185 0,0 1.73526,-0.654885 2.03126,-0.573487 0,0 -1.68346,-1.32087 -3.07833,-1.550264 0,0 1.67976,-0.480989 3.58522,1.479966 l 1.92025,-0.196096 c 0,0 -2.13115,-1.849957 -3.35952,-2.16075 0,0 1.78706,-0.225695 3.84791,2.14965 l 1.89806,0.0851 c 0,0 -1.71676,-1.746359 -3.00803,-2.375345 0,0 1.70196,0.147997 3.54821,2.416044 l 1.26167,0.203496 c 0,0 -1.27647,-1.250571 -1.67606,-1.576164 -0.39959,-0.325592 -0.34039,-0.43289 -0.34039,-0.43289 a 6.082659,6.082659 0 0 1 2.54554,2.116351 c 0,0 2.56404,0.577187 2.61214,0.42549 z"
     id="path179"
     inkscape:connector-curvature="0"
     style="opacity:0.1;fill:#0f52ba;stroke-width:0.36999142" />
  <path
     d="m 335.01144,100.10474 c 0,0 -3.89231,-13.552782 -12.64631,-8.687395 0,0 -1.75376,0.270094 -1.97205,2.023854 0,0 0.69558,-0.218295 0.93608,1.198772 a 6.559948,6.559948 0 0 0 0.44399,1.479965 3.1782263,3.1782263 0 0 0 1.35417,1.509565 v 0 c 0,0 2.86373,3.181929 9.47178,2.471539 0,0 1.70936,0.59939 2.03495,0.43659 l -1.75006,-1.901752 c 0,0 -1.34307,1.339369 -2.89703,1.213572 0,0 2.87113,-1.109974 2.64913,-1.505865 -0.0444,-0.0814 -0.96937,-0.965678 -0.96937,-0.965678 0,0 -2.34575,2.316147 -4.74329,2.046053 0,0 3.60001,-0.85098 4.3918,-2.382745 l -1.47997,-1.250571 c 0,0 -2.36055,2.567741 -5.10218,2.367945 0,0 3.72951,-1.024876 4.75809,-2.619539 l -1.62056,-1.032276 c 0,0 -2.34945,2.460443 -4.6286,2.275447 0,0 4.19201,-1.616862 4.2438,-2.486342 0,0 -1.54656,-0.85838 -2.06825,-0.88798 0,0 -1.72786,1.72416 -3.04133,1.502165 0,0 2.68614,-1.380068 2.58994,-1.69086 0,0 -2.30874,-0.580887 -3.63701,-0.258994 a 7.2185327,7.2185327 0 0 1 3.69991,-0.107298 3.970008,3.970008 0 0 0 -1.66496,-1.553964 c 0,0 1.39117,-0.277493 2.21995,1.701961 0,0 1.77966,0.525388 1.96465,0.769582 0,0 -0.54388,-2.068252 -1.51696,-3.093128 0,0 1.62796,0.628985 1.95725,3.352122 l 1.65016,1.002677 c 0,0 -0.57718,-2.774936 -1.37636,-3.751713 0,0 1.56136,0.899079 1.77225,4.036606 l 1.47997,1.209872 c 0,0 -0.31449,-2.427144 -0.96568,-3.699914 0,0 1.26907,1.146973 1.37267,4.069905 l 0.88058,0.924979 c 0,0 -0.25899,-1.768559 -0.36999,-2.271747 -0.111,-0.503189 0,-0.573487 0,-0.573487 a 6.0641595,6.0641595 0 0 1 0.75848,3.226325 c 0,0 1.68716,1.990552 1.82036,1.901752 z"
     id="path181"
     inkscape:connector-curvature="0"
     style="opacity:0.1;fill:#0f52ba;stroke-width:0.36999142" />
  <path
     d="m 248.27805,130.64384 c 0,0 -7.55893,-11.90633 -14.57766,-4.78029 0,0 -1.60577,0.73998 -1.32457,2.49744 0,0 0.61048,-0.40699 1.23947,0.88798 a 6.3342532,6.3342532 0 0 0 0.83618,1.28017 3.1597268,3.1597268 0 0 0 1.72046,1.06557 v 0 c 0,0 3.64442,2.24955 9.78627,-0.29599 0,0 1.80926,0.0962 2.07566,-0.1517 l -2.21995,-1.33196 c 0,0 -0.91388,1.66496 -2.44195,1.97945 0,0 2.44935,-1.84996 2.12005,-2.19035 -0.0629,-0.0666 -1.20247,-0.65118 -1.20247,-0.65118 0,0 -1.60206,2.87853 -3.97741,3.29662 0,0 3.21523,-1.83146 3.54822,-3.52602 l -1.77226,-0.78068 c 0,0 -1.54286,3.12643 -4.229,3.69991 0,0 3.29292,-2.03125 3.82941,-3.85161 l -1.84995,-0.53279 c 0,0 -1.56137,3.02283 -3.79982,3.48532 0,0 3.56672,-2.73053 3.37063,-3.58151 0,0 -1.72416,-0.38849 -2.21995,-0.2701 0,0 -1.17288,2.14225 -2.49745,2.29765 0,0 2.19035,-2.07935 2.00906,-2.35315 0,0 -2.37905,0.0925 -3.56302,0.77699 a 7.2000331,7.2000331 0 0 1 3.52972,-1.14698 3.970008,3.970008 0 0 0 -2.03125,-1.02487 c 0,0 1.25427,-0.65489 2.58994,1.01007 0,0 1.84995,0 2.10525,0.185 0,0 -1.10998,-1.84996 -2.32725,-2.54184 0,0 1.73896,0.14799 2.81934,2.66764 l 1.86845,0.49578 c 0,0 -1.33567,-2.49744 -2.37534,-3.21152 0,0 1.75006,0.42179 2.83413,3.37802 l 1.74636,0.73998 c 0,0 -0.98418,-2.23844 -1.97205,-3.28552 0,0 1.53916,0.73998 2.46044,3.51862 l 1.10997,0.64008 c 0,0 -0.73998,-1.62426 -1.00267,-2.07195 -0.2627,-0.44769 -0.1591,-0.55129 -0.1591,-0.55129 a 6.0678594,6.0678594 0 0 1 1.63166,2.88224 c 0,0 2.21255,1.47256 2.31245,1.34677 z"
     id="path183"
     inkscape:connector-curvature="0"
     style="opacity:0.1;fill:#0f52ba;stroke-width:0.36999142" />
  <path
     d="m 297.9568,69.809846 c 0,0 -7.18894,-12.132019 -14.42967,-5.227979 0,0 -1.62796,0.702984 -1.39856,2.456743 0,0 0.61788,-0.392191 1.20987,0.921279 a 6.3934518,6.3934518 0 0 0 0.79548,1.30977 3.1412272,3.1412272 0 0 0 1.68716,1.109974 v 0 c 0,0 3.57042,2.360545 9.78997,0 0,0 1.80556,0.151696 2.07935,-0.0888 l -2.17185,-1.398568 c 0,0 -0.96197,1.631663 -2.50114,1.901756 0,0 2.50484,-1.787058 2.19035,-2.12375 -0.0666,-0.0703 -1.18397,-0.691884 -1.18397,-0.691884 0,0 -1.69086,2.830434 -4.06991,3.174526 0,0 3.27073,-1.73156 3.65182,-3.411321 l -1.74636,-0.821381 c 0,0 -1.63906,3.082029 -4.3437,3.574117 0,0 3.35582,-1.927655 3.94781,-3.729513 l -1.82776,-0.591987 c 0,0 -1.65756,2.959932 -3.90711,3.366922 0,0 3.64812,-2.619539 3.47792,-3.474219 0,0 -1.70936,-0.44399 -2.21995,-0.340392 0,0 -1.23947,2.105251 -2.56774,2.219948 0,0 2.25325,-2.005353 2.08305,-2.286547 0,0 -2.38274,0.0185 -3.58521,0.665985 a 7.2222326,7.2222326 0 0 1 3.56301,-1.035976 3.9774078,3.9774078 0 0 0 -2.00165,-1.087775 c 0,0 1.27647,-0.617886 2.58994,1.087775 0,0 1.84996,0.0629 2.09785,0.251594 0,0 -1.04707,-1.849957 -2.24585,-2.612139 0,0 1.73156,0.199795 2.73424,2.752736 l 1.84996,0.554987 c 0,0 -1.25427,-2.538141 -2.27545,-3.285524 0,0 1.73896,0.477289 2.73054,3.46312 l 1.72046,0.802881 c 0,0 -0.91388,-2.268047 -1.84996,-3.329923 0,0 1.51327,0.788082 2.35315,3.592617 l 1.08407,0.673385 c 0,0 -0.69558,-1.646462 -0.93978,-2.101552 -0.24419,-0.455089 -0.14059,-0.554987 -0.14059,-0.554987 a 6.0789591,6.0789591 0 0 1 1.54286,2.930332 c 0,0 2.12005,1.505865 2.22735,1.383768 z"
     id="path185"
     inkscape:connector-curvature="0"
     style="fill:#0f52ba;stroke-width:0.36999142" />
  <path
     d="m 252.47375,95.320755 c 0,0 0.36999,-14.096673 -9.42368,-12.109819 0,0 -1.75376,-0.270094 -2.49374,1.335669 0,0 0.73998,0 0.53279,1.424467 a 6.4970494,6.4970494 0 0 0 -0.0222,1.531764 3.1634267,3.1634267 0 0 0 0.83248,1.849957 v 0 c 0,0 1.76486,3.89971 8.28041,5.224279 0,0 1.44666,1.091475 1.80925,1.032276 l -1.10997,-2.338346 c 0,0 -1.68346,0.86578 -3.13013,0.277494 0,0 3.07093,-0.181296 2.98583,-0.632685 0,-0.0925 -0.63638,-1.217272 -0.63638,-1.217272 0,0 -2.93773,1.498465 -5.13918,0.514288 0,0 3.69991,0.277494 4.90978,-0.939778 l -1.03227,-1.639062 c 0,0 -3.02653,1.73156 -5.57947,0.710383 0,0 3.86641,0.155397 5.33157,-1.054475 l -1.23207,-1.479966 c 0,0 -2.98583,1.635362 -5.10218,0.769582 0,0 4.4843,-0.270094 4.80989,-1.087775 0,0 -1.21357,-1.28387 -1.70196,-1.479965 0,0 -2.16815,1.109974 -3.35213,0.510588 0,0 2.95994,-0.495789 2.97844,-0.825081 0,0 -2.02386,-1.254271 -3.38913,-1.346769 a 7.2037331,7.2037331 0 0 1 3.57042,1.021177 3.9774078,3.9774078 0 0 0 -1.10997,-1.986854 c 0,0 1.40966,0.159096 1.60206,2.293946 0,0 1.54286,1.043376 1.64276,1.33197 0,0 0.1073,-2.134851 -0.51059,-3.407621 0,0 1.36157,1.091474 0.85098,3.785012 l 1.26907,1.457766 c 0,0 0.2886,-2.819335 -0.17389,-3.992207 0,0 1.21357,1.328269 0.46619,4.384398 l 1.02487,1.594663 c 0,0 0.43659,-2.408644 0.2035,-3.825711 0,0 0.85838,1.479965 0.074,4.2956 l 0.56238,1.146973 c 0,0 0.2849,-1.764859 0.3219,-2.279147 0.037,-0.514288 0.17759,-0.547587 0.17759,-0.547587 a 6.0752592,6.0752592 0 0 1 -0.25529,3.304023 c 0,0 0.99528,2.441944 1.15807,2.393845 z"
     id="path187"
     inkscape:connector-curvature="0"
     style="fill:#0f52ba;stroke-width:0.36999142" />
  <ellipse
     cx="268.66458"
     cy="272.75754"
     rx="9.9638691"
     ry="1.6834611"
     id="ellipse189"
     style="opacity:0.1;fill:#0f52ba;stroke-width:0.36999142" />
  <ellipse
     cx="232.34251"
     cy="298.31656"
     rx="9.9638691"
     ry="1.6834611"
     id="ellipse191"
     style="opacity:0.1;fill:#0f52ba;stroke-width:0.36999142" />
  <ellipse
     cx="44.512672"
     cy="285.22253"
     rx="9.9638691"
     ry="1.6834611"
     id="ellipse193"
     style="opacity:0.1;fill:#0f52ba;stroke-width:0.36999142" />
  <ellipse
     cx="307.91696"
     cy="296.63309"
     rx="9.9638691"
     ry="1.6834611"
     id="ellipse195"
     style="opacity:0.1;fill:#0f52ba;stroke-width:0.36999142" />
  <ellipse
     cx="318.2915"
     cy="275.27347"
     rx="14.877355"
     ry="2.5159419"
     id="ellipse197"
     style="fill:#0f52ba;stroke-width:0.36999142" />
  <path
     d="m 324.45928,271.15548 a 4.2956004,4.2956004 0 0 0 1.41707,-2.13855 c 0.185,-0.85098 -0.17759,-1.86846 -0.98788,-2.17925 -0.91017,-0.34779 -1.88325,0.28119 -2.62323,0.91758 -0.73999,0.63638 -1.57987,1.36527 -2.54555,1.23207 a 3.88491,3.88491 0 0 0 1.19878,-3.62962 1.5206648,1.5206648 0 0 0 -0.333,-0.73998 c -0.50688,-0.54019 -1.42076,-0.30709 -2.02755,0.1184 -1.92395,1.35417 -2.46044,3.96631 -2.47154,6.31945 -0.1924,-0.84728 -0.0296,-1.73156 -0.0333,-2.58994 -0.004,-0.85838 -0.2442,-1.84995 -0.98048,-2.30134 a 2.9266322,2.9266322 0 0 0 -1.47996,-0.37 c -0.86578,-0.0296 -1.83146,0.0555 -2.41975,0.68819 -0.73998,0.78438 -0.54389,2.10525 0.0925,2.95993 0.63639,0.85468 1.60946,1.40597 2.50484,2.00535 a 5.5979703,5.5979703 0 0 1 1.79076,1.70566 1.7389597,1.7389597 0 0 1 0.1295,0.3034 h 5.42407 a 14.962453,14.962453 0 0 0 3.34472,-2.30135 z"
     id="path199"
     inkscape:connector-curvature="0"
     style="fill:#0f52ba;stroke-width:0.36999142" />
  <path
     d="m 37.823228,277.39724 c 0,0 5.679368,-0.1739 7.399828,-1.39487 1.720461,-1.22097 8.742898,-2.67504 9.168388,-0.71779 0.42549,1.95726 8.539402,9.72708 2.123751,9.77888 -6.415652,0.0518 -14.906955,-0.99898 -16.616315,-2.04236 -1.709361,-1.04337 -2.075652,-5.62386 -2.075652,-5.62386 z"
     id="path201"
     inkscape:connector-curvature="0"
     style="fill:#a8a8a8;stroke-width:0.36999142" />
  <path
     d="m 56.622492,284.38267 c -6.415651,0.0518 -14.906954,-0.99897 -16.616315,-2.04235 -1.302369,-0.79178 -1.820357,-3.63701 -1.994253,-4.95048 h -0.188696 c 0,0 0.369991,4.58419 2.068252,5.62387 1.698261,1.03967 10.200664,2.09415 16.616315,2.04235 1.849957,0 2.490042,-0.67339 2.456743,-1.65016 -0.258994,0.59568 -0.965678,0.96567 -2.342046,0.97677 z"
     id="path203"
     inkscape:connector-curvature="0"
     style="opacity:0.2;stroke-width:0.36999142" />
</svg>
