<?xml version="1.0" encoding="UTF-8" standalone="no"?>
<svg
   xmlns:dc="http://purl.org/dc/elements/1.1/"
   xmlns:cc="http://creativecommons.org/ns#"
   xmlns:rdf="http://www.w3.org/1999/02/22-rdf-syntax-ns#"
   xmlns:svg="http://www.w3.org/2000/svg"
   xmlns="http://www.w3.org/2000/svg"
   xmlns:sodipodi="http://sodipodi.sourceforge.net/DTD/sodipodi-0.dtd"
   xmlns:inkscape="http://www.inkscape.org/namespaces/inkscape"
   id="ad6b5295-7ebf-4dc3-a7a8-a4a4b8d35fca"
   data-name="Layer 1"
   width="500"
   height="400"
   viewBox="0 0 500 399.99999"
   version="1.1"
   sodipodi:docname="not_found.svg"
   inkscape:version="0.92.4 (5da689c313, 2019-01-14)">
  <metadata
     id="metadata45">
    <rdf:RDF>
      <cc:Work
         rdf:about="">
        <dc:format>image/svg+xml</dc:format>
        <dc:type
           rdf:resource="http://purl.org/dc/dcmitype/StillImage" />
        <dc:title></dc:title>
      </cc:Work>
    </rdf:RDF>
  </metadata>
  <defs
     id="defs43" />
  <sodipodi:namedview
     pagecolor="#ffffff"
     bordercolor="#666666"
     borderopacity="1"
     objecttolerance="10"
     gridtolerance="10"
     guidetolerance="10"
     inkscape:pageopacity="0"
     inkscape:pageshadow="2"
     inkscape:window-width="1920"
     inkscape:window-height="1017"
     id="namedview41"
     showgrid="false"
     inkscape:zoom="0.35949367"
     inkscape:cx="395"
     inkscape:cy="256.10403"
     inkscape:window-x="-8"
     inkscape:window-y="-8"
     inkscape:window-maximized="1"
     inkscape:current-layer="ad6b5295-7ebf-4dc3-a7a8-a4a4b8d35fca" />
  <path
     d="m 437.84451,365.62311 -14.8428,-44.79207 c 0,0 16.32608,16.32608 16.32608,29.72184 l -2.93031,-30.9777 c 0,0 8.37235,11.30268 7.53511,28.466 -0.83724,17.16332 -6.08808,17.58193 -6.08808,17.58193 z"
     id="path2"
     inkscape:connector-curvature="0"
     style="fill:#e6e6e6;stroke-width:0.65782762" />
  <path
     d="m 119.09912,324.8378 -14.48598,-43.71528 c 0,0 15.93361,15.93361 15.93361,29.00734 l -2.85988,-30.233 c 0,0 8.17108,11.03096 7.35397,27.78167 -0.81711,16.75071 -5.94172,17.15927 -5.94172,17.15927 z"
     id="path4"
     inkscape:connector-curvature="0"
     style="fill:#e6e6e6;stroke-width:0.65782762" />
  <path
     d="m 345.19751,345.01054 c 0.0248,28.75679 -57.01056,19.91124 -126.83522,19.97151 -69.82466,0.0602 -125.997422,9.00349 -126.022242,-19.75325 -0.0248,-28.75674 56.989692,-35.06033 126.814352,-35.1206 69.82466,-0.0603 126.01829,6.14555 126.04311,34.90234 z"
     id="path6"
     inkscape:connector-curvature="0"
     style="fill:#e6e6e6;stroke-width:0.65782762" />
  <rect
     y="364.9653"
     width="519.68384"
     height="1.3156552"
     id="rect8"
     x="-36.161972"
     style="fill:#3f3d56;stroke-width:0.65782762" />
  <polygon
     points="484.855,366.797 505.336,366.797 505.336,420.322 491.459,420.322 "
     id="polygon10"
     style="fill:#a0616a"
     transform="matrix(0.65782762,0,0,0.65782762,-36.161972,29.675077)" />
  <path
     d="m 279.59915,303.5665 h 18.6193 v 11.08477 h -28.69007 v -1.01404 a 10.070762,10.070762 0 0 1 10.07077,-10.07073 z"
     id="path12"
     inkscape:connector-curvature="0"
     style="fill:#2f2e41;stroke-width:0.65782762" />
  <polygon
     points="586.855,445.797 607.336,445.797 607.336,499.322 593.459,499.322 "
     id="polygon14"
     style="fill:#a0616a"
     transform="matrix(0.65782762,0,0,0.65782762,-36.161972,29.675077)" />
  <path
     d="m 346.69757,355.53488 h 18.6193 v 11.08477 H 336.6268 v -1.01403 a 10.070762,10.070762 0 0 1 10.07077,-10.07074 z"
     id="path16"
     inkscape:connector-curvature="0"
     style="fill:#2f2e41;stroke-width:0.65782762" />
  <path
     d="m 405.46722,253.53975 a 6.7860906,6.7860906 0 0 0 -1.90497,-10.22987 l -21.20185,-86.36803 -13.55625,5.83256 25.21804,83.51056 a 6.8228894,6.8228894 0 0 0 11.44503,7.25478 z"
     id="path18"
     inkscape:connector-curvature="0"
     style="fill:#a0616a;stroke-width:0.65782762" />
  <path
     d="m 388.93129,78.988188 a 7.4875716,7.4875716 0 0 0 -11.45622,0.75812 l -32.81598,3.76744 4.992,12.65753 29.84418,-5.5855 a 7.5281333,7.5281333 0 0 0 9.43602,-11.59759 z"
     id="path20"
     inkscape:connector-curvature="0"
     style="fill:#a0616a;stroke-width:0.65782762" />
  <path
     d="m 334.85281,244.58283 14.31966,107.47204 17.82278,-3.66936 c 0,0 -2.62103,-78.26936 6.29039,-87.70495 8.91143,-9.43559 -11.4619,-25.96514 -11.4619,-25.96514 z"
     id="path22"
     inkscape:connector-curvature="0"
     style="fill:#2f2e41;stroke-width:0.65782762" />
  <path
     d="m 340.77326,214.98059 -6.57828,9.86741 c 0,0 -50.65273,-21.05001 -50.65273,12.49873 0,33.54874 -2.89859,56.31625 -3.94696,57.88883 -1.04837,1.57257 12.12877,5.6532 18.41917,4.60479 0,0 7.76031,-54.08582 7.23611,-57.231 0,0 49.68805,24.36156 59.12365,22.26477 9.43559,-2.09678 11.66481,-9.51942 13.23738,-13.71301 1.57258,-4.19359 -0.65782,-37.49618 -0.65782,-37.49618 l -31.45074,-9.59794 z"
     id="path24"
     inkscape:connector-curvature="0"
     style="fill:#2f2e41;stroke-width:0.65782762" />
  <path
     d="m 341.66077,155.73632 -1.87502,-2.25002 c 0,0 -21.00024,-47.25054 -12.75015,-60.000692 8.25009,-12.75015 44.2505,-14.62517 45.37552,-13.87516 1.12503,0.75 -2.68714,10.48761 -0.0622,14.98768 0,0 -27.88795,6.046242 -29.76299,6.796242 -1.87503,0.75001 14.44994,28.46664 14.44994,28.46664 l -1.87501,16.87519 z"
     id="path26"
     inkscape:connector-curvature="0"
     style="fill:#cccccc;stroke-width:0.65782762" />
  <path
     d="m 378.41119,132.48604 c 0,0 -19.5002,2.25004 -20.25023,2.25004 -0.75004,0 -1.125,-4.87505 -1.125,-4.87505 l -17.25021,23.62526 c 0,0 -8.49862,68.53976 -6.2486,67.41475 2.25003,-1.12502 43.74903,5.33606 44.12405,2.33603 0.37501,-3.00002 -0.37502,-18.0002 0.75001,-18.75021 1.12503,-0.75002 19.50017,-47.25052 19.50017,-47.25052 0,0 -1.87502,-9.75011 -8.25009,-13.12515 -6.37507,-3.37505 -11.2501,-11.62515 -11.2501,-11.62515 z"
     id="path28"
     inkscape:connector-curvature="0"
     style="fill:#cccccc;stroke-width:0.65782762" />
  <path
     d="m 391.91135,150.86128 6.00005,6.37506 c 0,0 8.91486,73.25557 4.03983,75.50559 -4.87504,2.25003 -14.47221,1.97349 -14.47221,1.97349 l -9.44284,-34.7286 z"
     id="path30"
     inkscape:connector-curvature="0"
     style="fill:#cccccc;stroke-width:0.65782762" />
  <circle
     cx="359.67245"
     cy="110.5863"
     r="17.260607"
     id="circle32"
     style="fill:#a0616a;stroke-width:0.65782762" />
  <path
     d="m 355.62218,113.27965 c -0.23314,-3.58151 -4.75152,-3.70423 -8.34045,-3.73814 -3.58892,-0.0339 -7.87969,0.0942 -9.91043,-2.86512 -1.34204,-1.95572 -1.0857,-4.67079 0.023,-6.767592 1.10872,-2.09681 2.93241,-3.70949 4.72654,-5.26093 4.63202,-4.00541 9.4059,-7.97903 14.96703,-10.54275 5.56113,-2.56373 12.07801,-3.59963 17.84547,-1.54162 7.08485,2.52808 16.66229,15.54176 17.48933,23.018552 0.82704,7.47679 -2.16101,15.0988 -7.19788,20.68595 -5.03688,5.58715 -16.56534,3.33288 -23.82039,5.32051 4.41066,-6.24255 1.5034,-17.58543 -5.56241,-20.50054 z"
     id="path34"
     inkscape:connector-curvature="0"
     style="fill:#2f2e41;stroke-width:0.65782762" />
  <circle
     cx="201.78856"
     cy="295.11157"
     r="41.436108"
     id="circle36"
     style="fill:#0f52ba;stroke-width:0.65782762" />
  <path
     d="M 174.11674,250.73116 A 29.706963,29.706963 0 0 1 146.97782,233.11049 L 81.226528,85.038898 A 39.358083,39.358083 0 1 1 154.81779,57.49943 l 47.61188,154.86059 a 29.654725,29.654725 0 0 1 -28.3129,38.37114 z"
     id="path38"
     inkscape:connector-curvature="0"
     style="fill:#0f52ba;stroke-width:0.65782762" />
</svg>
