<?xml version="1.0" encoding="UTF-8" standalone="no"?>
<svg
   xmlns:dc="http://purl.org/dc/elements/1.1/"
   xmlns:cc="http://creativecommons.org/ns#"
   xmlns:rdf="http://www.w3.org/1999/02/22-rdf-syntax-ns#"
   xmlns:svg="http://www.w3.org/2000/svg"
   xmlns="http://www.w3.org/2000/svg"
   xmlns:sodipodi="http://sodipodi.sourceforge.net/DTD/sodipodi-0.dtd"
   xmlns:inkscape="http://www.inkscape.org/namespaces/inkscape"
   id="Flat"
   height="512"
   viewBox="0 0 512 512"
   width="512"
   version="1.1"
   sodipodi:docname="dinner-active.svg"
   inkscape:version="0.92.4 (5da689c313, 2019-01-14)">
  <metadata
     id="metadata21">
    <rdf:RDF>
      <cc:Work
         rdf:about="">
        <dc:format>image/svg+xml</dc:format>
        <dc:type
           rdf:resource="http://purl.org/dc/dcmitype/StillImage" />
      </cc:Work>
    </rdf:RDF>
  </metadata>
  <defs
     id="defs19" />
  <sodipodi:namedview
     pagecolor="#ffffff"
     bordercolor="#666666"
     borderopacity="1"
     objecttolerance="10"
     gridtolerance="10"
     guidetolerance="10"
     inkscape:pageopacity="0"
     inkscape:pageshadow="2"
     inkscape:window-width="1920"
     inkscape:window-height="1017"
     id="namedview17"
     showgrid="false"
     inkscape:zoom="0.921875"
     inkscape:cx="274.47715"
     inkscape:cy="334.23623"
     inkscape:window-x="-8"
     inkscape:window-y="-8"
     inkscape:window-maximized="1"
     inkscape:current-layer="Flat" />
  <path
     d="m240 24h32v48h-32z"
     fill="#c2c5c6"
     id="path2"
     style="fill:#c8b4af;fill-opacity:1" />
  <path
     d="m288 32h-64a8 8 0 0 1 0-16h64a8 8 0 0 1 0 16z"
     fill="#d9dbdd"
     id="path4"
     style="fill:#ffffff" />
  <path
     d="m232 56h48a160 160 0 0 1 160 160v24a0 0 0 0 1 0 0h-368a0 0 0 0 1 0 0v-24a160 160 0 0 1 160-160z"
     fill="#d9dbdd"
     id="path6"
     style="fill:#ffffff" />
  <path
     d="m264 456h96v32h-96z"
     fill="#e74444"
     id="path8"
     style="fill:#c8b4af;fill-opacity:1" />
  <path
     d="m32 232h448a0 0 0 0 1 0 0v16a16 16 0 0 1 -16 16h-416a16 16 0 0 1 -16-16v-16a0 0 0 0 1 0 0z"
     fill="#c2c5c6"
     id="path10"
     style="fill:#c8b4af;fill-opacity:1" />
  <path
     d="m138.909 288-6.646-14.621a16 16 0 0 0 -14.563-9.379h-4.564c-14.592 0-21.568 17.934-10.812 27.794l65.676 60.206v-64z"
     fill="#deb89a"
     id="path12"
     style="fill:#ffffff;fill-opacity:1" />
  <path
     d="m352 456v-24l6.627-6.627a32 32 0 0 0 9.373-22.628v-50.745l29.718-65.379a16 16 0 0 0 -14.566-22.621h-13.652a16 16 0 0 0 -14.046 8.338l-43.454 79.662-32 8-80-32-27.578-55.155a16 16 0 0 0 -14.311-8.845h-5.263a16 16 0 0 0 -14.566 22.621l29.718 65.379 120 104z"
     fill="#f5cbaa"
     id="path14"
     style="fill:#ffffff;fill-opacity:1" />
</svg>
