<svg id="Capa_1" enable-background="new 0 0 497 497" height="512" viewBox="0 0 497 497" width="512" xmlns="http://www.w3.org/2000/svg"><g><path d="m65.198 457 172.253-5-37.123-360.043c6.843 15.966 26.324 19.683 40.802 11.627 14.478-8.057 20.488-21.662 11.627-40.802-5.742-12.403-5.742-12.403-17.287-37.341-6.781-14.647-20.318-25.441-38.933-25.441-16.967 0-40.394 8.105-53.71 43.819-27.387 73.455-75.508 143.856-99.843 207.121 0 79.069 3.24 172.595 7.505 194 1.398 7.016 7.555 12.06 14.709 12.06z" fill="#d8ab8c"/><path d="m201.43 94.489c-3.733-8.577-14.655-33.669-14.655-33.669-3.076-7.692-1.492-18.351 5.747-22.379 1.75-.974 3.776-1.208 5.702-.659 1.927.549 3.524 1.815 4.499 3.565 2.222 3.994 15.556 36.101 17.043 39.236 1.283 2.705 3.975 4.288 6.782 4.288 1.077 0 2.171-.233 3.208-.726 3.743-1.775 5.337-6.248 3.563-9.99-1.329-2.802-14.85-35.359-17.489-40.102-2.922-5.251-7.715-9.051-13.495-10.698s-11.856-.945-17.107 1.978c-13.073 7.275-15.784 22.293-15.784 59.538v270.522l-114.154 83.515c-4.317-23.086-12.306-110.111-12.306-187.967-9.194 23.902-15 46.787-15 68.43 0 29.053 8.24 114.164 12.505 135.57 1.398 7.016 7.556 12.06 14.709 12.06h189.434l46.783-12.071 19.324-127.209c.107-3.122.165-5.933.165-8.349.001-65.411-78.467-159.379-109.474-224.883zm-131.232 357.511c-2.044 0-4-.424-5.793-1.175l111.39-81.492 51.695 37.82c.194 14.002 3.79 29.819 9.961 44.847z" fill="#c7865b"/><path d="m298.399 454.94c3.911-19.626 11.161-92.795 12.34-127.221-3.986-.505-7.829-.829-11.128-.829-45.722 0-72.135 35.401-72.135 79.072 0 .394.009.793.014 1.191l61.301 44.847h-51.34c2.105 5.127 4.51 10.161 7.181 15h39.058c7.154 0 13.311-5.044 14.709-12.06z" fill="#b36d3c"/><path d="m323.747 485.739c11.651 0 32-6.67 32-6.67s27.444 6.67 41.135 6.67c18.868 0 38.57-12.205 55.083-33.929 10.658-19.381 17.053-41.878 17.053-60.848 0-43.67-26.413-79.072-72.135-79.072-14.978 0-41.136 6.67-41.136 6.67s-26.157-6.67-41.135-6.67c-18.832 0-34.378 6.016-46.162 16.131-8.623 13.014-14.712 31.337-14.712 49.283-.001 52.91 28.923 108.435 70.009 108.435z" fill="#ffd064"/><path d="m396.881 480.109c-13.691 0-41.135-6.67-41.135-6.67s-20.348 6.67-32 6.67c-38.083 0-64.38-55.9-64.38-102.804 0-17.946 2.924-35.024 9.082-49.283-16.827 14.444-25.973 37.257-25.973 62.94 0 43.67 33.879 106.038 75.671 106.038 13.691 0 37.599-6.67 37.599-6.67s23.909 6.67 37.599 6.67c23.638 0 44.741-19.954 58.618-45.19-16.237 16.72-36.213 28.299-55.081 28.299z" fill="#ebb044"/><path d="m361.085 317.952c28.682-11.821 45.098-42.362 39.124-72.813-.686-3.496-4.459-5.449-7.753-4.091-28.682 11.821-45.098 42.362-39.124 72.813.686 3.496 4.459 5.449 7.753 4.091z" fill="#61aab8"/></g></svg>