<?xml version="1.0" encoding="UTF-8" standalone="no"?>
<svg
   xmlns:dc="http://purl.org/dc/elements/1.1/"
   xmlns:cc="http://creativecommons.org/ns#"
   xmlns:rdf="http://www.w3.org/1999/02/22-rdf-syntax-ns#"
   xmlns:svg="http://www.w3.org/2000/svg"
   xmlns="http://www.w3.org/2000/svg"
   xmlns:sodipodi="http://sodipodi.sourceforge.net/DTD/sodipodi-0.dtd"
   xmlns:inkscape="http://www.inkscape.org/namespaces/inkscape"
   id="Capa_1"
   enable-background="new 0 0 512 512"
   height="512"
   viewBox="0 0 512 512"
   width="512"
   version="1.1"
   sodipodi:docname="profile.svg"
   inkscape:version="0.92.4 (5da689c313, 2019-01-14)">
  <metadata
     id="metadata21">
    <rdf:RDF>
      <cc:Work
         rdf:about="">
        <dc:format>image/svg+xml</dc:format>
        <dc:type
           rdf:resource="http://purl.org/dc/dcmitype/StillImage" />
      </cc:Work>
    </rdf:RDF>
  </metadata>
  <defs
     id="defs19" />
  <sodipodi:namedview
     pagecolor="#ffffff"
     bordercolor="#666666"
     borderopacity="1"
     objecttolerance="10"
     gridtolerance="10"
     guidetolerance="10"
     inkscape:pageopacity="0"
     inkscape:pageshadow="2"
     inkscape:window-width="1920"
     inkscape:window-height="1017"
     id="namedview17"
     showgrid="false"
     inkscape:zoom="0.4609375"
     inkscape:cx="-105.22034"
     inkscape:cy="256"
     inkscape:window-x="-8"
     inkscape:window-y="-8"
     inkscape:window-maximized="1"
     inkscape:current-layer="Capa_1" />
  <path
     style="fill:#fbf7f5;fill-opacity:1"
     inkscape:connector-curvature="0"
     id="path2"
     d="M 256,0 95.602,256 256,512 C 397.385,512 512,397.385 512,256 512,114.615 397.385,0 256,0 Z" />
  <path
     style="fill:#fbf7f5;fill-opacity:1"
     inkscape:connector-curvature="0"
     id="path4"
     d="M 0,256 C 0,397.385 114.615,512 256,512 V 0 C 114.615,0 0,114.615 0,256 Z" />
  <path
     style="fill:#d4aa00;fill-opacity:1"
     inkscape:connector-curvature="0"
     id="path6"
     d="M 256,60 190.212,165 256,270 C 313.99,270 361,222.99 361,165 361,107.01 313.99,60 256,60 Z" />
  <path
     style="fill:#d4aa00;fill-opacity:1"
     inkscape:connector-curvature="0"
     id="path8"
     d="m 151,165 c 0,57.99 47.01,105 105,105 V 60 c -57.99,0 -105,47.01 -105,105 z" />
  <path
     style="fill:#d4aa00;fill-opacity:1"
     inkscape:connector-curvature="0"
     id="path10"
     d="M 424.649,335.443 C 404.716,312.918 376.049,300 346,300 h -90 l -60,76 60,76 c 70.322,0 135.636,-38.01 170.454,-99.198 l 5.306,-9.325 z" />
  <path
     style="fill:#d4aa00;fill-opacity:1"
     inkscape:connector-curvature="0"
     id="path12"
     d="m 166,300 c -30.049,0 -58.716,12.918 -78.649,35.443 l -7.11,8.035 5.306,9.325 C 120.364,413.99 185.678,452 256,452 V 300 Z" />
</svg>
