<?xml version="1.0" encoding="UTF-8" standalone="no"?>
<svg
   xmlns:dc="http://purl.org/dc/elements/1.1/"
   xmlns:cc="http://creativecommons.org/ns#"
   xmlns:rdf="http://www.w3.org/1999/02/22-rdf-syntax-ns#"
   xmlns:svg="http://www.w3.org/2000/svg"
   xmlns="http://www.w3.org/2000/svg"
   xmlns:sodipodi="http://sodipodi.sourceforge.net/DTD/sodipodi-0.dtd"
   xmlns:inkscape="http://www.inkscape.org/namespaces/inkscape"
   version="1.1"
   id="Layer_1"
   x="0px"
   y="0px"
   viewBox="0 0 512 512"
   style="enable-background:new 0 0 512 512;"
   xml:space="preserve"
   width="512px"
   height="512px"
   class=""
   sodipodi:docname="recommended.svg"
   inkscape:version="0.92.4 (5da689c313, 2019-01-14)"><metadata
   id="metadata37"><rdf:RDF><cc:Work
       rdf:about=""><dc:format>image/svg+xml</dc:format><dc:type
         rdf:resource="http://purl.org/dc/dcmitype/StillImage" /></cc:Work></rdf:RDF></metadata><defs
   id="defs35">
	
	
	
	
	
	
	
	
	
	
	
	
	
</defs><sodipodi:namedview
   pagecolor="#ffffff"
   bordercolor="#666666"
   borderopacity="1"
   objecttolerance="10"
   gridtolerance="10"
   guidetolerance="10"
   inkscape:pageopacity="0"
   inkscape:pageshadow="2"
   inkscape:window-width="1920"
   inkscape:window-height="1017"
   id="namedview33"
   showgrid="false"
   inkscape:zoom="0.4609375"
   inkscape:cx="-105.22034"
   inkscape:cy="256"
   inkscape:window-x="-8"
   inkscape:window-y="-8"
   inkscape:window-maximized="1"
   inkscape:current-layer="Layer_1" /><circle
   style="fill:#fbf7f5;fill-opacity:1"
   cx="256"
   cy="256"
   r="256"
   data-original="#A0EBFF"
   class="active-path"
   data-old_color="#A0EBFF"
   id="circle2" /><path
   style="fill:#f7bf00;fill-opacity:1"
   d="m 344.038,223.954 c 0,-50.284 -40.76,-91.044 -91.044,-91.044 -50.284,0 -91.044,40.76 -91.044,91.044 0,49.833 20.291,64.41 40.504,92.698 13.322,18.637 13.322,39.685 13.322,39.685 h 74.435 c 0,0 -0.026,-21.048 13.322,-39.685 20.235,-28.273 40.505,-42.865 40.505,-92.698 z"
   data-original="#FDF35A"
   id="path4"
   inkscape:connector-curvature="0" /><path
   style="fill:#f7bf00"
   d="m 252.995,132.91 v 223.427 h 37.217 c 0,0 -0.026,-21.048 13.322,-39.685 20.239,-28.268 40.504,-42.865 40.504,-92.698 0,-50.284 -40.765,-91.044 -91.043,-91.044 z"
   data-original="#F7BF00"
   id="path6"
   inkscape:connector-curvature="0" /><path
   style="fill:#f7bf00"
   d="m 278.513,356.337 v -27.684 c 0,-7.962 -6.456,-14.418 -14.418,-14.418 h -22.2 c -7.962,0 -14.418,6.456 -14.418,14.418 v 27.679 h 51.036 z"
   data-original="#F7BF00"
   id="path8"
   inkscape:connector-curvature="0" /><rect
   x="215.757"
   y="356.35199"
   style="fill:#335872"
   width="74.408997"
   height="47.063"
   data-original="#335872"
   class=""
   id="rect10" /><path
   style="fill:#d03e00"
   d="m 215.777,403.4 v 3.825 c 0,7.962 6.456,14.418 14.418,14.418 h 45.573 c 7.962,0 14.418,-6.456 14.418,-14.418 V 403.4 Z"
   data-original="#D03E00"
   id="path12"
   inkscape:connector-curvature="0" /><path
   style="fill:#335872"
   d="m 252.995,439.849 c 10.056,0 18.212,-8.156 18.212,-18.212 h -36.424 c 0,10.061 8.151,18.212 18.212,18.212 z"
   data-original="#335872"
   class=""
   id="path14"
   inkscape:connector-curvature="0" /><path
   style="fill:#fdf35a"
   d="m 264.095,314.235 h -11.11 v 42.097 h 25.528 v -27.679 c 0,-7.962 -6.457,-14.418 -14.418,-14.418 z"
   data-original="#FDF35A"
   id="path16"
   inkscape:connector-curvature="0" /><path
   style="fill:#d03e00"
   d="m 262.026,356.347 c 0,0 -0.159,-59.484 -0.159,-79.283 0,-6.461 2.217,-13.204 4.362,-19.727 2.478,-7.521 5.033,-15.304 2.376,-18.98 -1.961,-2.708 -7.363,-4.147 -15.606,-4.147 -8.228,0 -13.629,1.454 -15.626,4.198 -2.739,3.779 -0.164,11.674 2.33,19.313 2.099,6.426 4.265,13.061 4.265,19.338 v 79.273 h -7.798 v -79.268 c 0,-5.033 -1.971,-11.075 -3.881,-16.922 -3.098,-9.492 -6.298,-19.318 -1.229,-26.312 3.676,-5.059 10.644,-7.419 21.939,-7.419 11.32,0 18.289,2.34 21.924,7.373 4.997,6.902 1.807,16.604 -1.28,25.989 -1.951,5.939 -3.973,12.078 -3.973,17.29 0,19.794 0.159,79.263 0.159,79.263 z"
   data-original="#D03E00"
   id="path18"
   inkscape:connector-curvature="0" /><rect
   x="252.979"
   y="356.35199"
   style="fill:#153040"
   width="37.228001"
   height="47.063"
   data-original="#153040"
   id="rect20" /><path
   style="fill:#153040"
   d="m 252.995,421.637 v 18.212 c 10.056,0 18.212,-8.156 18.212,-18.212 z"
   data-original="#153040"
   id="path22"
   inkscape:connector-curvature="0" /><path
   style="fill:#9c2e00"
   d="m 252.995,403.4 v 18.243 h 22.774 c 7.962,0 14.418,-6.456 14.418,-14.418 V 403.4 Z"
   data-original="#9C2E00"
   class=""
   id="path24"
   inkscape:connector-curvature="0" /><path
   style="fill:#f7bf00"
   d="m 150.62,257.546 c -0.451,-2.616 -2.949,-4.367 -5.555,-3.917 l -33.838,5.852 c -2.616,0.451 -4.362,2.939 -3.912,5.555 0.404,2.335 2.437,3.988 4.731,3.988 l 0.824,-0.072 33.838,-5.852 c 2.612,-0.454 4.363,-2.943 3.912,-5.554 z M 193.864,92.82 c -1.111,-2.406 -3.968,-3.461 -6.38,-2.345 -2.406,1.111 -3.461,3.968 -2.34,6.38 l 14.408,31.165 c 0.814,1.756 2.55,2.79 4.362,2.79 0.671,0 1.362,-0.143 2.012,-0.445 2.406,-1.111 3.461,-3.968 2.34,-6.38 z m -31.637,70.784 c 0.901,0.763 2.002,1.137 3.098,1.137 1.372,0 2.729,-0.579 3.676,-1.705 1.715,-2.028 1.459,-5.059 -0.568,-6.774 l -26.23,-22.159 c -2.038,-1.72 -5.069,-1.454 -6.774,0.568 -1.715,2.028 -1.459,5.059 0.568,6.774 z m -51.927,39.03 33.137,8.996 1.265,0.169 c 2.109,0 4.05,-1.408 4.634,-3.548 0.696,-2.56 -0.819,-5.202 -3.379,-5.893 l -33.137,-8.996 c -2.555,-0.696 -5.197,0.819 -5.893,3.379 -0.702,2.56 0.808,5.197 3.373,5.893 z m 55.629,97.838 -28.196,19.604 c -2.176,1.516 -2.719,4.511 -1.203,6.687 0.932,1.347 2.432,2.063 3.953,2.063 0.947,0 1.9,-0.282 2.739,-0.86 l 28.196,-19.604 c 2.176,-1.516 2.719,-4.511 1.203,-6.687 -1.516,-2.186 -4.506,-2.713 -6.692,-1.203 z M 252.995,72.494 c -2.396,0.21 -4.449,2.191 -4.46,4.716 l -0.113,34.34 c -0.01,2.575 2.022,4.644 4.572,4.777 2.55,-0.128 4.582,-2.202 4.572,-4.777 l -0.113,-34.34 c -0.009,-2.525 -2.067,-4.506 -4.458,-4.716 z m 87.669,92.247 c 1.096,0 2.196,-0.369 3.098,-1.137 l 26.23,-22.154 c 2.028,-1.715 2.278,-4.746 0.568,-6.774 -1.705,-2.022 -4.736,-2.289 -6.774,-0.568 l -26.23,22.159 c -2.028,1.715 -2.278,4.746 -0.568,6.774 0.947,1.122 2.304,1.7 3.676,1.7 z m 15.99,43.51 c 0.584,2.14 2.519,3.548 4.634,3.548 l 1.265,-0.169 33.137,-8.996 c 2.56,-0.696 4.076,-3.333 3.379,-5.898 -0.701,-2.56 -3.343,-4.076 -5.893,-3.379 l -33.137,8.996 c -2.571,0.701 -4.081,3.338 -3.385,5.898 z m 38.108,51.231 -33.838,-5.852 c -2.611,-0.451 -5.105,1.3 -5.555,3.917 -0.451,2.616 1.3,5.099 3.912,5.555 l 33.838,5.852 0.824,0.072 c 2.294,0 4.326,-1.654 4.731,-3.988 0.45,-2.618 -1.301,-5.106 -3.912,-5.556 z m -54.707,40.99 c -2.186,-1.51 -5.176,-0.983 -6.692,1.203 -1.516,2.176 -0.978,5.176 1.203,6.687 l 28.196,19.604 c 0.84,0.579 1.792,0.86 2.739,0.86 1.521,0 3.016,-0.722 3.953,-2.063 1.516,-2.176 0.978,-5.171 -1.203,-6.687 z M 318.495,90.476 c -2.412,-1.116 -5.263,-0.061 -6.38,2.345 l -14.408,31.171 c -1.116,2.406 -0.067,5.263 2.34,6.38 0.65,0.302 1.341,0.445 2.012,0.445 1.818,0 3.553,-1.034 4.362,-2.79 l 14.408,-31.165 c 1.127,-2.418 0.077,-5.27 -2.334,-6.386 z"
   data-original="#F7BF00"
   id="path26"
   inkscape:connector-curvature="0" /> </svg>