<?xml version="1.0" encoding="UTF-8" standalone="no"?>
<svg
   xmlns:dc="http://purl.org/dc/elements/1.1/"
   xmlns:cc="http://creativecommons.org/ns#"
   xmlns:rdf="http://www.w3.org/1999/02/22-rdf-syntax-ns#"
   xmlns:svg="http://www.w3.org/2000/svg"
   xmlns="http://www.w3.org/2000/svg"
   xmlns:sodipodi="http://sodipodi.sourceforge.net/DTD/sodipodi-0.dtd"
   xmlns:inkscape="http://www.inkscape.org/namespaces/inkscape"
   version="1.1"
   id="Layer_1"
   x="0px"
   y="0px"
   viewBox="0 0 50 50"
   xml:space="preserve"
   width="50"
   height="50"
   class=""
   sodipodi:docname="recommended.svg"
   inkscape:version="0.92.4 (5da689c313, 2019-01-14)"><metadata
   id="metadata37"><rdf:RDF><cc:Work
       rdf:about=""><dc:format>image/svg+xml</dc:format><dc:type
         rdf:resource="http://purl.org/dc/dcmitype/StillImage" /><dc:title></dc:title></cc:Work></rdf:RDF></metadata><defs
   id="defs35">
	
	
	
	
	
	
	
	
	
	
	
	
	
</defs><sodipodi:namedview
   pagecolor="#ffffff"
   bordercolor="#666666"
   borderopacity="1"
   objecttolerance="10"
   gridtolerance="10"
   guidetolerance="10"
   inkscape:pageopacity="0"
   inkscape:pageshadow="2"
   inkscape:window-width="1920"
   inkscape:window-height="1017"
   id="namedview33"
   showgrid="false"
   inkscape:zoom="5.2149125"
   inkscape:cx="83.450093"
   inkscape:cy="5.9347371"
   inkscape:window-x="-8"
   inkscape:window-y="-8"
   inkscape:window-maximized="1"
   inkscape:current-layer="Layer_1" /><path
   style="fill:#f7bf00;fill-opacity:1;stroke-width:0.12826002"
   d="m 37.186619,23.355027 c 0,-6.050748 -5.572339,-10.955459 -12.446712,-10.955459 -6.874372,0 -12.44671,4.904711 -12.44671,10.955459 0,5.996479 2.774001,7.750551 5.537339,11.154488 1.821264,2.242618 1.821264,4.775356 1.821264,4.775356 h 10.176079 c 0,0 -0.0035,-2.532738 1.821264,-4.775356 2.766344,-3.402131 5.537476,-5.158009 5.537476,-11.154488 z"
   data-original="#FDF35A"
   id="path4"
   inkscape:connector-curvature="0" /><path
   style="fill:#f7bf00;stroke-width:0.12826002"
   d="m 24.740044,12.399568 v 26.885303 h 5.087971 c 0,0 -0.0035,-2.532738 1.821264,-4.775356 2.766893,-3.40153 5.53734,-5.158009 5.53734,-11.154488 0,-6.050748 -5.573022,-10.955459 -12.446575,-10.955459 z"
   data-original="#F7BF00"
   id="path6"
   inkscape:connector-curvature="0" /><path
   style="fill:#f7bf00;stroke-width:0.12826002"
   d="m 28.228635,39.284871 v -3.331257 c 0,-0.958079 -0.882607,-1.73494 -1.9711,-1.73494 h -3.034982 c -1.088492,0 -1.971099,0.776861 -1.971099,1.73494 v 3.330655 h 6.977181 z"
   data-original="#F7BF00"
   id="path8"
   inkscape:connector-curvature="0" /><rect
   x="19.649202"
   y="39.286674"
   style="fill:#335872;stroke-width:0.12826002"
   width="10.172524"
   height="5.6631608"
   data-original="#335872"
   class=""
   id="rect10" /><path
   style="fill:#d03e00;stroke-width:0.12826002"
   d="m 19.651937,44.948032 v 0.460267 c 0,0.958079 0.882605,1.73494 1.971097,1.73494 h 6.230329 c 1.088492,0 1.971098,-0.776861 1.971098,-1.73494 v -0.460267 z"
   data-original="#D03E00"
   id="path12"
   inkscape:connector-curvature="0" /><path
   style="fill:#335872;stroke-width:0.12826002"
   d="m 24.740044,49.333994 c 1.374766,0 2.48978,-0.981425 2.48978,-2.191478 h -4.97956 c 0,1.210656 1.114332,2.191478 2.48978,2.191478 z"
   data-original="#335872"
   class=""
   id="path14"
   inkscape:connector-curvature="0" /><path
   style="fill:#fdf35a;stroke-width:0.12826002"
   d="m 26.257535,34.218674 h -1.518858 v 5.065595 h 3.489958 v -3.330655 c 0,-0.958079 -0.882744,-1.73494 -1.9711,-1.73494 z"
   data-original="#FDF35A"
   id="path16"
   inkscape:connector-curvature="0" /><path
   style="fill:#d03e00;stroke-width:0.12826002"
   d="m 25.974681,39.286074 c 0,0 -0.02174,-7.157799 -0.02174,-9.540241 0,-0.777462 0.303087,-1.588856 0.596333,-2.373779 0.338769,-0.905013 0.688066,-1.841553 0.324825,-2.283893 -0.268091,-0.325857 -1.006603,-0.499014 -2.133512,-0.499014 -1.124857,0 -1.863233,0.174962 -2.136245,0.505152 -0.374452,0.454732 -0.02243,1.40475 0.318537,2.323962 0.286956,0.773251 0.583072,1.57165 0.583072,2.32697 v 9.539038 h -1.066073 v -9.538436 c 0,-0.605628 -0.269457,-1.332672 -0.530575,-2.036249 -0.423531,-1.142186 -0.861004,-2.324564 -0.168016,-3.166162 0.502548,-0.608759 1.45515,-0.89274 2.9993,-0.89274 1.547569,0 2.500307,0.281575 2.997252,0.887204 0.683144,0.830529 0.247036,1.997984 -0.17499,3.127294 -0.266725,0.71465 -0.543153,1.453364 -0.543153,2.080532 0,2.381842 0.02174,9.537835 0.02174,9.537835 z"
   data-original="#D03E00"
   id="path18"
   inkscape:connector-curvature="0" /><rect
   x="24.73786"
   y="39.286674"
   style="fill:#153040;stroke-width:0.12826002"
   width="5.0894752"
   height="5.6631608"
   data-original="#153040"
   id="rect20" /><path
   style="fill:#153040;stroke-width:0.12826002"
   d="m 24.740044,47.142516 v 2.191478 c 1.374766,0 2.48978,-0.981425 2.48978,-2.191478 z"
   data-original="#153040"
   id="path22"
   inkscape:connector-curvature="0" /><path
   style="fill:#9c2e00;stroke-width:0.12826002"
   d="m 24.740044,44.948032 v 2.195207 h 3.113455 c 1.088493,0 1.971099,-0.776861 1.971099,-1.73494 v -0.460267 z"
   data-original="#9C2E00"
   class=""
   id="path24"
   inkscape:connector-curvature="0" /><path
   style="fill:#f7bf00;stroke-width:0.12826002"
   d="m 10.744262,27.397203 c -0.06166,-0.314788 -0.40316,-0.525487 -0.7594303,-0.471338 l -4.6260251,0.704179 c -0.3576367,0.05427 -0.596333,0.353654 -0.5348133,0.668441 0.055226,0.280974 0.3331643,0.479883 0.646779,0.479883 l 0.1126454,-0.0087 4.6260263,-0.704181 c 0.357089,-0.05462 0.59647,-0.354135 0.534813,-0.66832 z M 16.656189,7.5754787 c -0.151885,-0.289519 -0.542469,-0.416469 -0.872215,-0.282178 -0.328927,0.133689 -0.473157,0.477475 -0.319904,0.767715 l 1.969732,3.7501313 c 0.111286,0.211302 0.348611,0.335724 0.596332,0.335724 0.09173,0 0.186201,-0.0172 0.275063,-0.05355 0.328927,-0.133688 0.473156,-0.477474 0.319903,-0.767715 z m -4.325123,8.5175433 c 0.123176,0.09182 0.273695,0.136817 0.42353,0.136817 0.187568,0 0.373083,-0.06967 0.502549,-0.205165 0.23446,-0.244033 0.199462,-0.608758 -0.07765,-0.815125 L 9.5935657,12.543123 C 9.3149472,12.336153 8.9005765,12.368161 8.667485,12.611473 8.433026,12.855505 8.4680237,13.22023 8.745137,13.426599 Z m -7.0989912,4.696538 4.5301909,1.082502 0.17294,0.02033 c 0.2883233,0 0.5536803,-0.169426 0.6335183,-0.426936 0.09516,-0.308049 -0.111971,-0.625964 -0.461945,-0.709114 L 5.576587,19.673844 c -0.3492968,-0.08375 -0.7104865,0.09855 -0.8056376,0.406601 -0.095977,0.308048 0.1104634,0.625362 0.4611254,0.709113 z M 12.837168,32.562553 8.9824672,34.92153 c -0.2974833,0.182423 -0.3717174,0.542816 -0.1644635,0.804658 0.127415,0.162086 0.3324811,0.248242 0.5404182,0.248242 0.1294658,0 0.2597508,-0.03394 0.3744528,-0.103488 l 3.8547003,-2.358978 c 0.297482,-0.182423 0.371718,-0.542816 0.164464,-0.804657 -0.207254,-0.263044 -0.616019,-0.326458 -0.914871,-0.144758 z M 24.740044,5.1296202 c -0.327559,0.025272 -0.608227,0.2636462 -0.609731,0.5674831 l -0.01545,4.1321834 c -0.0014,0.3098533 0.27643,0.5588203 0.625043,0.5748233 0.348613,-0.01541 0.626409,-0.26497 0.625042,-0.5748233 L 25.349506,5.6971033 C 25.34825,5.3932664 25.066925,5.1548899 24.740049,5.1296202 Z M 36.725356,16.229839 c 0.149835,0 0.300218,-0.04441 0.42353,-0.136817 l 3.585929,-2.665824 c 0.27725,-0.206369 0.311427,-0.571093 0.07765,-0.815126 -0.233092,-0.243308 -0.647463,-0.275439 -0.926081,-0.06835 l -3.585927,2.666426 c -0.27725,0.206367 -0.311428,0.571093 -0.07765,0.815126 0.129466,0.135011 0.314981,0.204563 0.502549,0.204563 z m 2.186008,5.235624 c 0.07984,0.257509 0.344374,0.426936 0.633519,0.426936 l 0.172939,-0.02033 4.530191,-1.082502 c 0.34998,-0.08375 0.557233,-0.401065 0.461946,-0.709715 -0.09584,-0.308049 -0.457025,-0.490472 -0.805638,-0.406601 l -4.530191,1.082502 c -0.351483,0.08435 -0.557917,0.401667 -0.462766,0.709716 z m 5.209781,6.164701 -4.626025,-0.704179 c -0.356952,-0.05427 -0.697909,0.15643 -0.759429,0.471338 -0.06166,0.314787 0.177724,0.61357 0.534813,0.668441 l 4.626024,0.704181 0.112645,0.0087 c 0.313616,0 0.591413,-0.199028 0.646781,-0.479881 0.06152,-0.315028 -0.177861,-0.614413 -0.534814,-0.668562 z m -7.479046,4.932389 c -0.29885,-0.181701 -0.707615,-0.118291 -0.914869,0.144757 -0.207254,0.261842 -0.133703,0.622836 0.164462,0.804658 l 3.854703,2.358977 c 0.114837,0.06968 0.244987,0.103489 0.37445,0.103489 0.207938,0 0.412321,-0.08688 0.540419,-0.248243 0.207254,-0.261841 0.133703,-0.622234 -0.164463,-0.804657 z M 33.69461,7.2934217 c -0.329746,-0.13429 -0.719509,-0.0073 -0.872215,0.282177 l -1.969732,3.7508523 c -0.152568,0.289518 -0.0091,0.633306 0.319905,0.767715 0.08886,0.03634 0.183329,0.05355 0.275062,0.05355 0.248541,0 0.485734,-0.124416 0.596333,-0.335724 l 1.969731,-3.7501313 c 0.154074,-0.290961 0.01051,-0.634147 -0.319084,-0.768436 z"
   data-original="#F7BF00"
   id="path26"
   inkscape:connector-curvature="0" /> </svg>