<?xml version="1.0" encoding="UTF-8" standalone="no"?>
<svg
   xmlns:dc="http://purl.org/dc/elements/1.1/"
   xmlns:cc="http://creativecommons.org/ns#"
   xmlns:rdf="http://www.w3.org/1999/02/22-rdf-syntax-ns#"
   xmlns:svg="http://www.w3.org/2000/svg"
   xmlns="http://www.w3.org/2000/svg"
   xmlns:sodipodi="http://sodipodi.sourceforge.net/DTD/sodipodi-0.dtd"
   xmlns:inkscape="http://www.inkscape.org/namespaces/inkscape"
   version="1.1"
   id="Layer_1"
   x="0px"
   y="0px"
   viewBox="0 0 50 50"
   xml:space="preserve"
   width="50"
   height="50"
   class=""
   sodipodi:docname="recommended-grey.svg"
   inkscape:version="0.92.4 (5da689c313, 2019-01-14)"><metadata
   id="metadata37"><rdf:RDF><cc:Work
       rdf:about=""><dc:format>image/svg+xml</dc:format><dc:type
         rdf:resource="http://purl.org/dc/dcmitype/StillImage" /><dc:title></dc:title></cc:Work></rdf:RDF></metadata><defs
   id="defs35">
	
	
	
	
	
	
	
	
	
	
	
	
	
</defs><sodipodi:namedview
   pagecolor="#ffffff"
   bordercolor="#666666"
   borderopacity="1"
   objecttolerance="10"
   gridtolerance="10"
   guidetolerance="10"
   inkscape:pageopacity="0"
   inkscape:pageshadow="2"
   inkscape:window-width="1920"
   inkscape:window-height="1017"
   id="namedview33"
   showgrid="false"
   inkscape:zoom="3.6875"
   inkscape:cx="122.79139"
   inkscape:cy="27.544579"
   inkscape:window-x="1912"
   inkscape:window-y="-8"
   inkscape:window-maximized="1"
   inkscape:current-layer="Layer_1" /><path
   style="fill:#c8c8c8;fill-opacity:1;stroke-width:0.12822787"
   d="m 37.170203,23.35525 c 0,-6.05069 -5.569593,-10.95536 -12.440579,-10.95536 -6.870985,0 -12.440578,4.90467 -12.440578,10.95536 0,5.99643 2.772634,7.75049 5.534611,11.1544 1.820367,2.2426 1.820367,4.77531 1.820367,4.77531 h 10.171065 c 0,0 -0.0035,-2.53271 1.820366,-4.77531 2.764982,-3.40211 5.534748,-5.15797 5.534748,-11.1544 z"
   data-original="#FDF35A"
   id="path4"
   inkscape:connector-curvature="0" /><path
   style="fill:#c8c8c8;fill-opacity:1;stroke-width:0.12822787"
   d="m 24.729761,12.39989 v 26.88507 h 5.085464 c 0,0 -0.0035,-2.53271 1.820366,-4.77531 2.76553,-3.4015 5.534612,-5.15797 5.534612,-11.1544 0,-6.05069 -5.570276,-10.95536 -12.440442,-10.95536 z"
   data-original="#F7BF00"
   id="path6"
   inkscape:connector-curvature="0" /><path
   style="fill:#808080;fill-opacity:1;stroke-width:0.12822787"
   d="m 28.216632,39.28496 v -3.33123 c 0,-0.95807 -0.882171,-1.73492 -1.970128,-1.73492 h -3.033487 c -1.087956,0 -1.970128,0.77685 -1.970128,1.73492 v 3.33063 h 6.973743 z"
   data-original="#F7BF00"
   id="path8"
   inkscape:connector-curvature="0" /><rect
   x="19.641428"
   y="39.286774"
   style="fill:#808080;fill-opacity:1;stroke-width:0.12822787"
   width="10.167512"
   height="5.6631131"
   data-original="#335872"
   class=""
   id="rect10" /><path
   style="fill:#c8c8c8;fill-opacity:1;stroke-width:0.12822787"
   d="m 19.64416,44.94807 v 0.46027 c 0,0.95807 0.882171,1.73492 1.970127,1.73492 h 6.227259 c 1.087956,0 1.970127,-0.77685 1.970127,-1.73492 v -0.46027 z"
   data-original="#D03E00"
   id="path12"
   inkscape:connector-curvature="0" /><path
   style="fill:#808080;fill-opacity:1;stroke-width:0.12822787"
   d="m 24.729761,49.334 c 1.374088,0 2.488553,-0.98142 2.488553,-2.19146 h -4.977106 c 0,1.21065 1.113782,2.19146 2.488553,2.19146 z"
   data-original="#335872"
   class=""
   id="path14"
   inkscape:connector-curvature="0" /><path
   style="fill:#808080;fill-opacity:1;stroke-width:0.12822787"
   d="m 26.246504,34.21881 h -1.51811 v 5.06555 h 3.488238 v -3.33063 c 0,-0.95807 -0.882308,-1.73492 -1.970128,-1.73492 z"
   data-original="#FDF35A"
   id="path16"
   inkscape:connector-curvature="0" /><path
   style="fill:#808080;fill-opacity:1;stroke-width:0.12822787"
   d="m 25.963789,39.28617 c 0,0 -0.02173,-7.15774 -0.02173,-9.54017 0,-0.77745 0.302938,-1.58884 0.596039,-2.37376 0.338603,-0.905 0.687728,-1.84153 0.324666,-2.28387 -0.267959,-0.32585 -1.006107,-0.49901 -2.132461,-0.49901 -1.124303,0 -1.862315,0.17496 -2.135193,0.50515 -0.374266,0.45473 -0.02241,1.40474 0.31838,2.32394 0.286816,0.77325 0.582785,1.57164 0.582785,2.32695 v 9.53896 H 22.430732 V 29.746 c 0,-0.60562 -0.269324,-1.33266 -0.530313,-2.03623 -0.423322,-1.14217 -0.860581,-2.32454 -0.167935,-3.16613 0.502302,-0.60876 1.454434,-0.89273 2.997823,-0.89273 1.546806,0 2.499075,0.28157 2.995775,0.88719 0.682808,0.83052 0.246915,1.99797 -0.174904,3.12727 -0.266592,0.71464 -0.542885,1.45335 -0.542885,2.08051 0,2.38183 0.02173,9.53776 0.02173,9.53776 z"
   data-original="#D03E00"
   id="path18"
   inkscape:connector-curvature="0" /><rect
   x="24.727577"
   y="39.286774"
   style="fill:#808080;fill-opacity:1;stroke-width:0.12822787"
   width="5.0869675"
   height="5.6631131"
   data-original="#153040"
   id="rect20" /><path
   style="fill:#808080;fill-opacity:1;stroke-width:0.12822787"
   d="M 24.729761,47.14254 V 49.334 c 1.374088,0 2.488553,-0.98142 2.488553,-2.19146 z"
   data-original="#153040"
   id="path22"
   inkscape:connector-curvature="0" /><path
   style="fill:#c8c8c8;fill-opacity:1;stroke-width:0.12822787"
   d="m 24.729761,44.94807 v 2.19519 h 3.111921 c 1.087957,0 1.970127,-0.77685 1.970127,-1.73492 v -0.46027 z"
   data-original="#9C2E00"
   class=""
   id="path24"
   inkscape:connector-curvature="0" /><path
   style="fill:#808080;fill-opacity:1;stroke-width:0.12822787"
   d="m 10.740874,27.39739 c -0.06163,-0.31478 -0.402961,-0.52548 -0.7590547,-0.47133 l -4.6237455,0.70417 c -0.3574599,0.0543 -0.596039,0.35366 -0.5345497,0.66844 0.055204,0.28097 0.3330004,0.47988 0.6464602,0.47988 l 0.1125953,-0.009 4.6237444,-0.70417 c 0.356914,-0.0546 0.596177,-0.35413 0.53455,-0.66832 z M 16.649889,7.57584 C 16.498078,7.28632 16.107687,7.15937 15.778103,7.29366 15.449338,7.42735 15.305179,7.77113 15.458357,8.06137 l 1.968761,3.7501 c 0.111228,0.2113 0.348441,0.33572 0.596039,0.33572 0.09169,0 0.186109,-0.0172 0.274927,-0.0536 0.328765,-0.13368 0.472923,-0.47747 0.319746,-0.7677 z m -4.322993,8.51747 c 0.123116,0.0918 0.273561,0.13681 0.423322,0.13681 0.187475,0 0.3729,-0.0697 0.502302,-0.20516 0.234344,-0.24403 0.199363,-0.60875 -0.07761,-0.81512 L 9.5907455,12.54344 C 9.312265,12.33647 8.8980982,12.36848 8.665121,12.61184 8.4307781,12.85587 8.4657585,13.22059 8.742735,13.42696 Z m -7.0954908,4.6965 4.5279576,1.08249 0.1728546,0.0203 c 0.2881806,0 0.5534066,-0.16943 0.6332066,-0.42694 0.0951,-0.30804 -0.111912,-0.62596 -0.461719,-0.7091 l -4.5279582,-1.0825 c -0.349124,-0.0838 -0.7101364,0.0985 -0.8052405,0.4066 -0.095924,0.30805 0.1104084,0.62536 0.4608989,0.70911 z M 12.83275,32.5627 8.9799484,34.92166 c -0.2973362,0.18242 -0.3715342,0.54281 -0.1643821,0.80465 0.1273514,0.16208 0.3323166,0.24824 0.5401516,0.24824 0.1294017,0 0.2596227,-0.0339 0.3742673,-0.10348 L 13.582787,33.51211 C 13.880123,33.32969 13.954321,32.9693 13.747169,32.70746 13.540018,32.44442 13.131454,32.381 12.83275,32.5627 Z M 24.729761,5.13 C 24.402363,5.1553 24.121834,5.39364 24.12033,5.69748 l -0.01544,4.13215 c -0.0014,0.30985 0.276293,0.55881 0.624734,0.57482 0.348442,-0.0154 0.626101,-0.26497 0.624735,-0.57482 L 25.338919,5.69748 C 25.337719,5.39364 25.056477,5.15527 24.729761,5.13 Z m 11.979406,11.10012 c 0.149762,0 0.30007,-0.0444 0.423322,-0.13681 l 3.584162,-2.6658 c 0.277113,-0.20637 0.311274,-0.57109 0.07761,-0.81512 -0.232978,-0.24331 -0.647144,-0.27544 -0.925625,-0.0684 l -3.58416,2.6664 c -0.277114,0.20637 -0.311274,0.57109 -0.07761,0.81512 0.129401,0.13501 0.314826,0.20456 0.502301,0.20456 z m 2.184931,5.23558 c 0.0798,0.25751 0.344205,0.42694 0.633207,0.42694 l 0.172854,-0.0203 4.527958,-1.08249 c 0.349808,-0.0838 0.556959,-0.40106 0.46172,-0.70971 -0.09579,-0.30805 -0.456801,-0.49047 -0.805242,-0.4066 l -4.527958,1.08249 c -0.351311,0.0844 -0.557643,0.40167 -0.462539,0.70971 z m 5.207214,6.16465 -4.623746,-0.70417 c -0.356776,-0.0543 -0.697565,0.15643 -0.759054,0.47133 -0.06163,0.31479 0.177636,0.61357 0.534549,0.66844 l 4.623745,0.70417 0.112595,0.009 c 0.31346,0 0.591121,-0.19903 0.646461,-0.47988 0.06149,-0.31502 -0.177774,-0.61441 -0.53455,-0.66856 z m -7.475361,4.93235 c -0.298702,-0.1817 -0.707266,-0.11828 -0.914418,0.14476 -0.207152,0.26184 -0.133637,0.62283 0.164382,0.80465 l 3.852803,2.35896 c 0.11478,0.0697 0.244865,0.10348 0.374266,0.10348 0.207835,0 0.412117,-0.0869 0.540152,-0.24824 0.207152,-0.26184 0.133637,-0.62223 -0.164382,-0.80465 z M 33.679915,7.29378 C 33.350332,7.15949 32.96076,7.28678 32.80813,7.57596 l -1.968761,3.75082 c -0.152494,0.28951 -0.0092,0.6333 0.319746,0.76771 0.08882,0.0363 0.183239,0.0535 0.274927,0.0535 0.248418,0 0.485494,-0.12442 0.596039,-0.33572 l 1.96876,-3.7501 c 0.153998,-0.29096 0.01052,-0.63414 -0.318926,-0.76843 z"
   data-original="#F7BF00"
   id="path26"
   inkscape:connector-curvature="0" /> </svg>