<?xml version="1.0" encoding="UTF-8" standalone="no"?>
<svg
   xmlns:dc="http://purl.org/dc/elements/1.1/"
   xmlns:cc="http://creativecommons.org/ns#"
   xmlns:rdf="http://www.w3.org/1999/02/22-rdf-syntax-ns#"
   xmlns:svg="http://www.w3.org/2000/svg"
   xmlns="http://www.w3.org/2000/svg"
   xmlns:sodipodi="http://sodipodi.sourceforge.net/DTD/sodipodi-0.dtd"
   xmlns:inkscape="http://www.inkscape.org/namespaces/inkscape"
   version="1.1"
   id="Layer_1"
   x="0px"
   y="0px"
   viewBox="0 0 512 512"
   style="enable-background:new 0 0 512 512;"
   xml:space="preserve"
   width="512px"
   height="512px"
   class=""
   sodipodi:docname="recommended-grey.svg"
   inkscape:version="0.92.4 (5da689c313, 2019-01-14)"><metadata
   id="metadata37"><rdf:RDF><cc:Work
       rdf:about=""><dc:format>image/svg+xml</dc:format><dc:type
         rdf:resource="http://purl.org/dc/dcmitype/StillImage" /><dc:title></dc:title></cc:Work></rdf:RDF></metadata><defs
   id="defs35">
	
	
	
	
	
	
	
	
	
	
	
	
	
</defs><sodipodi:namedview
   pagecolor="#ffffff"
   bordercolor="#666666"
   borderopacity="1"
   objecttolerance="10"
   gridtolerance="10"
   guidetolerance="10"
   inkscape:pageopacity="0"
   inkscape:pageshadow="2"
   inkscape:window-width="1920"
   inkscape:window-height="1017"
   id="namedview33"
   showgrid="false"
   inkscape:zoom="0.4609375"
   inkscape:cx="-827.66102"
   inkscape:cy="256"
   inkscape:window-x="-8"
   inkscape:window-y="-8"
   inkscape:window-maximized="1"
   inkscape:current-layer="Layer_1" /><path
   style="fill:#c8c8c8;fill-opacity:1;stroke-width:1.37087417"
   d="m 395.15877,213.30786 c 0,-68.93303 -55.87683,-124.80986 -124.80986,-124.80986 -68.93303,0 -124.80986,55.87683 -124.80986,124.80986 0,68.31477 27.8164,88.298 55.52588,127.07729 18.26279,25.54898 18.26279,54.40314 18.26279,54.40314 h 102.04101 c 0,0 -0.0356,-28.85416 18.26279,-54.40314 27.73963,-38.75872 55.52725,-58.76252 55.52725,-127.07729 z"
   data-original="#FDF35A"
   id="path4"
   inkscape:connector-curvature="0" /><path
   style="fill:#c8c8c8;stroke-width:1.37087417;fill-opacity:1"
   d="m 270.35028,88.498 v 306.29029 h 51.01982 c 0,0 -0.0356,-28.85416 18.26279,-54.40314 27.74512,-38.75187 55.52588,-58.76252 55.52588,-127.07729 0,-68.93303 -55.88368,-124.80986 -124.80849,-124.80986 z"
   data-original="#F7BF00"
   id="path6"
   inkscape:connector-curvature="0" /><path
   style="fill:#808080;stroke-width:1.37087417;fill-opacity:1"
   d="m 305.33225,394.78829 v -37.95128 c 0,-10.9149 -8.85037,-19.76526 -19.76527,-19.76526 h -30.4334 c -10.9149,0 -19.76527,8.85036 -19.76527,19.76526 v 37.94443 h 69.96394 z"
   data-original="#F7BF00"
   id="path8"
   inkscape:connector-curvature="0" /><rect
   x="219.30168"
   y="394.80884"
   style="fill:#808080;stroke-width:1.37087417;fill-opacity:1"
   width="102.00536"
   height="64.517448"
   data-original="#335872"
   class=""
   id="rect10" /><path
   style="fill:#c8c8c8;stroke-width:1.37087417;fill-opacity:1"
   d="m 219.32909,459.30574 v 5.24359 c 0,10.9149 8.85036,19.76527 19.76526,19.76527 h 62.47485 c 10.9149,0 19.76526,-8.85037 19.76526,-19.76527 v -5.24359 z"
   data-original="#D03E00"
   id="path12"
   inkscape:connector-curvature="0" /><path
   style="fill:#808080;stroke-width:1.37087417;fill-opacity:1"
   d="m 270.35028,509.27273 c 13.78551,0 24.96636,-11.18085 24.96636,-24.96636 h -49.93272 c 0,13.79237 11.174,24.96636 24.96636,24.96636 z"
   data-original="#335872"
   class=""
   id="path14"
   inkscape:connector-curvature="0" /><path
   style="fill:#808080;stroke-width:1.37087417;fill-opacity:1"
   d="m 285.56698,337.07175 h -15.23041 v 57.70969 h 34.99568 v -37.94443 c 0,-10.9149 -8.85174,-19.76526 -19.76527,-19.76526 z"
   data-original="#FDF35A"
   id="path16"
   inkscape:connector-curvature="0" /><path
   style="fill:#808080;stroke-width:1.37087417;fill-opacity:1"
   d="m 282.73064,394.802 c 0,0 -0.21796,-81.54508 -0.21796,-108.68701 0,-8.85722 3.03922,-18.10102 5.97975,-27.04324 3.39702,-10.31034 6.89961,-20.97985 3.2572,-26.01919 -2.68829,-3.71232 -10.09375,-5.68501 -21.39387,-5.68501 -11.27955,0 -18.68364,1.99325 -21.42128,5.75493 -3.75482,5.18053 -0.22482,16.00358 3.19414,26.47569 2.87747,8.80924 5.84678,17.90499 5.84678,26.50996 V 394.78144 H 247.28532 V 286.11499 c 0,-6.89961 -2.70199,-15.18243 -5.32036,-23.19793 -4.24697,-13.01234 -8.63376,-26.48255 -1.6848,-36.07044 5.03933,-6.93526 14.59158,-10.17052 30.0756,-10.17052 15.5183,0 25.07192,3.20785 30.05505,10.10746 6.85026,9.46177 2.47717,22.76199 -1.75472,35.62764 -2.67458,8.14162 -5.44648,16.55742 -5.44648,23.70242 0,27.13508 0.21797,108.65959 0.21797,108.65959 z"
   data-original="#D03E00"
   id="path18"
   inkscape:connector-curvature="0" /><rect
   x="270.32837"
   y="394.80884"
   style="fill:#808080;stroke-width:1.37087417;fill-opacity:1"
   width="51.034901"
   height="64.517448"
   data-original="#153040"
   id="rect20" /><path
   style="fill:#808080;stroke-width:1.37087417;fill-opacity:1"
   d="m 270.35028,484.30637 v 24.96636 c 13.78551,0 24.96636,-11.18085 24.96636,-24.96636 z"
   data-original="#153040"
   id="path22"
   inkscape:connector-curvature="0" /><path
   style="fill:#c8c8c8;stroke-width:1.37087417;fill-opacity:1"
   d="m 270.35028,459.30574 v 25.00886 h 31.22029 c 10.9149,0 19.76526,-8.85037 19.76526,-19.76527 v -5.24359 z"
   data-original="#9C2E00"
   class=""
   id="path24"
   inkscape:connector-curvature="0" /><path
   style="fill:#808080;stroke-width:1.37087417;fill-opacity:1"
   d="m 130.00704,259.35827 c -0.61826,-3.58621 -4.0427,-5.98661 -7.6152,-5.36972 l -46.387636,8.02236 c -3.58621,0.61826 -5.97975,4.029 -5.36286,7.6152 0.55383,3.20099 3.34082,5.46705 6.4856,5.46705 l 1.12961,-0.0987 46.387626,-8.02236 c 3.58073,-0.62238 5.98113,-4.03448 5.36286,-7.61383 z M 189.28912,33.539656 c -1.52304,-3.298323 -5.43963,-4.744595 -8.74617,-3.214699 -3.29833,1.523041 -4.7446,5.439628 -3.20785,8.746176 l 19.75156,42.723292 c 1.11589,2.407255 3.49572,3.824739 5.97975,3.824739 0.91985,0 1.86713,-0.196035 2.7582,-0.610039 3.29832,-1.523041 4.74459,-5.439629 3.20784,-8.746177 z m -43.37034,97.035954 c 1.23516,1.04598 2.74449,1.55868 4.24697,1.55868 1.88084,0 3.74111,-0.79373 5.03933,-2.33734 2.35105,-2.78013 2.00011,-6.93525 -0.77866,-9.2863 L 118.4684,90.133452 c -2.79385,-2.357903 -6.94897,-1.993251 -9.28631,0.778657 -2.35104,2.780133 -2.0001,6.935252 0.77866,9.286301 z m -71.185376,53.50522 45.426646,12.33238 1.73416,0.23168 c 2.89117,0 5.55204,-1.93019 6.35263,-4.86386 0.95413,-3.50944 -1.12275,-7.13129 -4.63218,-8.07856 L 78.188004,171.37008 c -3.50258,-0.95413 -7.12443,1.12275 -8.07856,4.63219 -0.96235,3.50943 1.10767,7.12443 4.62396,8.07856 z m 76.260346,134.12358 -38.65316,26.87461 c -2.98302,2.07825 -3.72741,6.18402 -1.64916,9.16704 1.27765,1.84657 3.33396,2.82811 5.41906,2.82811 1.29822,0 2.60466,-0.38658 3.75483,-1.17895 l 38.65316,-26.87461 c 2.98302,-2.07825 3.72741,-6.18402 1.64916,-9.16704 -2.07824,-2.99673 -6.17715,-3.71918 -9.17389,-1.64916 z M 270.35028,5.6752688 c -3.28461,0.287884 -6.09902,3.003585 -6.1141,6.4650422 l -0.15491,47.075817 c -0.0137,3.530001 2.77191,6.36634 6.26764,6.548666 3.49573,-0.175472 6.28134,-3.018665 6.26764,-6.548666 l -0.15491,-47.075817 c -0.0123,-3.4614572 -2.8336,-6.1771582 -6.11136,-6.4650422 z M 390.53344,132.13429 c 1.50248,0 3.01044,-0.50585 4.24697,-1.55868 l 35.95803,-30.37035 c 2.78013,-2.351045 3.12285,-6.506164 0.77866,-9.286297 -2.33734,-2.771907 -6.49246,-3.137931 -9.28631,-0.778656 l -35.95802,30.377203 c -2.78014,2.35104 -3.12285,6.50616 -0.77866,9.2863 1.29822,1.53812 3.15849,2.33048 5.03933,2.33048 z m 21.92028,59.64674 c 0.80059,2.93367 3.45323,4.86386 6.35263,4.86386 l 1.73416,-0.23168 45.42665,-12.33238 c 3.50944,-0.95413 5.58768,-4.56913 4.63219,-8.08542 -0.96099,-3.50944 -4.58284,-5.58768 -8.07857,-4.63218 l -45.42665,12.33238 c -3.52452,0.96098 -5.59454,4.57598 -4.64041,8.08542 z m 52.24127,70.23125 -46.38764,-8.02236 c -3.57935,-0.61826 -6.99831,1.78214 -7.6152,5.36972 -0.61827,3.5862 1.78213,6.99008 5.36286,7.6152 l 46.38763,8.02236 1.1296,0.0987 c 3.14479,0 5.93041,-2.26742 6.48561,-5.46704 0.61689,-3.58895 -1.78351,-6.99969 -5.36286,-7.61658 z m -74.99641,56.19213 c -2.99673,-2.07002 -7.09564,-1.34757 -9.17389,1.64916 -2.07824,2.98302 -1.34071,7.09564 1.64916,9.16704 l 38.65317,26.87461 c 1.15153,0.79374 2.45661,1.17895 3.75482,1.17895 2.0851,0 4.13456,-0.98977 5.41907,-2.82811 2.07824,-2.98302 1.34071,-7.08879 -1.64916,-9.16704 z M 360.14253,30.326327 c -3.30654,-1.529895 -7.21491,-0.08362 -8.74617,3.2147 L 331.6448,76.272544 c -1.52989,3.298323 -0.0918,7.214911 3.20785,8.746177 0.89107,0.414004 1.83834,0.610039 2.7582,0.610039 2.49225,0 4.87071,-1.417484 5.97975,-3.824739 l 19.75155,-42.723292 c 1.54498,-3.314773 0.10556,-7.224506 -3.19962,-8.754402 z"
   data-original="#F7BF00"
   id="path26"
   inkscape:connector-curvature="0" /> </svg>